<svg width="21" height="21" viewBox="0 0 21 21" fill="none" xmlns="http://www.w3.org/2000/svg">
<path d="M1.33342 11.456H16.2268L9.72008 17.9627C9.20008 18.4827 9.20008 19.336 9.72008 19.856C10.2401 20.376 11.0801 20.376 11.6001 19.856L20.3868 11.0694C20.5104 10.946 20.6084 10.7995 20.6753 10.6382C20.7422 10.4769 20.7767 10.304 20.7767 10.1294C20.7767 9.95474 20.7422 9.78183 20.6753 9.62053C20.6084 9.45923 20.5104 9.31271 20.3868 9.18936L11.6134 0.38936C11.49 0.265918 11.3434 0.167998 11.1821 0.101191C11.0209 0.0343846 10.848 2.60136e-09 10.6734 0C10.4988 -2.60136e-09 10.326 0.0343846 10.1647 0.101191C10.0034 0.167998 9.85686 0.265918 9.73342 0.38936C9.60998 0.512803 9.51205 0.659351 9.44525 0.820636C9.37844 0.981922 9.34406 1.15479 9.34406 1.32936C9.34406 1.50394 9.37844 1.6768 9.44525 1.83809C9.51205 1.99937 9.60998 2.14592 9.73342 2.26936L16.2268 8.78936H1.33342C0.600084 8.78936 8.39233e-05 9.38936 8.39233e-05 10.1227C8.39233e-05 10.856 0.600084 11.456 1.33342 11.456Z" fill="#0C3423"/>
</svg>
