<svg width="40" height="40" viewBox="0 0 40 40" fill="none" xmlns="http://www.w3.org/2000/svg">
<path opacity="0.3" d="M6.66666 20H33.3333V25H6.66666V20Z" fill="white"/>
<path d="M33.3333 16.6667V11.6667C33.3333 9.83334 31.8333 8.33334 30 8.33334H10C8.16668 8.33334 6.66668 9.83334 6.66668 11.6667V16.6667C4.83334 16.6667 3.33334 18.1667 3.33334 20V28.3333H5.55001L6.66668 31.6667H8.33334L9.45001 28.3333H30.5667L31.6667 31.6667H33.3333L34.45 28.3333H36.6667V20C36.6667 18.1667 35.1667 16.6667 33.3333 16.6667ZM21.6667 11.6667H30V16.6667H21.6667V11.6667ZM10 11.6667H18.3333V16.6667H10V11.6667ZM33.3333 25H6.66668V20H33.3333V25Z" fill="white"/>
</svg>
