<svg width="38" height="38" viewBox="0 0 38 38" fill="none" xmlns="http://www.w3.org/2000/svg">
<path d="M30.0833 6.33332H28.5V3.16666H25.3333V6.33332H12.6667V3.16666H9.5V6.33332H7.91667C6.15917 6.33332 4.76583 7.75832 4.76583 9.49999L4.75 31.6667C4.75 32.5065 5.08363 33.312 5.6775 33.9058C6.27136 34.4997 7.07681 34.8333 7.91667 34.8333H30.0833C31.825 34.8333 33.25 33.4083 33.25 31.6667V9.49999C33.25 7.75832 31.825 6.33332 30.0833 6.33332ZM30.0833 31.6667H7.91667V15.8333H30.0833V31.6667ZM30.0833 12.6667H7.91667V9.49999H30.0833V12.6667ZM14.25 22.1667H11.0833V19H14.25V22.1667ZM20.5833 22.1667H17.4167V19H20.5833V22.1667ZM26.9167 22.1667H23.75V19H26.9167V22.1667ZM14.25 28.5H11.0833V25.3333H14.25V28.5ZM20.5833 28.5H17.4167V25.3333H20.5833V28.5ZM26.9167 28.5H23.75V25.3333H26.9167V28.5Z" fill="white"/>
<path opacity="0.3" d="M6 9H31V14H6V9Z" fill="white"/>
</svg>
