<svg width="32" height="32" viewBox="0 0 32 32" fill="none" xmlns="http://www.w3.org/2000/svg">
<path d="M17.4453 28.4485C20.6446 28.0415 23.5689 26.4314 25.6237 23.9457C27.6785 21.46 28.7098 18.2851 28.5078 15.0664C28.3059 11.8476 26.8859 8.82652 24.5364 6.61713C22.187 4.40775 19.0845 3.17587 15.8594 3.17188C12.6303 3.16947 9.52189 4.39834 7.16739 6.60809C4.81289 8.81784 3.38953 11.8422 3.18733 15.0649C2.98513 18.2876 4.0193 21.4661 6.07913 23.9528C8.13895 26.4396 11.0694 28.0473 14.2734 28.4485V19.0313H11.1016V15.8594H14.2734V13.2362C14.2734 11.1158 14.4955 10.3467 14.9078 9.57113C15.3143 8.80407 15.942 8.17692 16.7094 7.77109C17.3153 7.44598 18.0686 7.25091 19.3849 7.16685C19.9072 7.13302 20.5828 7.17531 21.4117 7.29373V10.307H20.6188C19.1645 10.307 18.5634 10.3752 18.205 10.5671C17.9913 10.6774 17.8172 10.8514 17.707 11.0651C17.5167 11.4235 17.4469 11.7788 17.4469 13.2346V15.8594H21.4117L20.6188 19.0313H17.4469L17.4453 28.4485ZM15.8594 31.7188C7.10024 31.7188 0 24.6185 0 15.8594C0 7.10024 7.10024 0 15.8594 0C24.6185 0 31.7188 7.10024 31.7188 15.8594C31.7188 24.6185 24.6185 31.7188 15.8594 31.7188Z" fill="#35C071"/>
</svg>
