<svg width="21" height="26" viewBox="0 0 21 26" fill="none" xmlns="http://www.w3.org/2000/svg">
<path d="M18.4708 10.5916C18.4708 13.9112 15.7583 18.0704 10.5142 22.8754L10.075 23.2629L9.63584 22.8624C4.39167 18.0704 1.67917 13.9112 1.67917 10.5916C1.67917 5.63161 5.32167 1.93744 10.075 1.93744C14.8283 1.93744 18.4708 5.61869 18.4708 10.5916Z" fill="#35C071" fill-opacity="0.3"/>
<path d="M10.3496 12.6583C10.0934 12.6598 9.83943 12.6109 9.60223 12.5145C9.36503 12.418 9.14928 12.276 8.96736 12.0964C8.78235 11.9188 8.63659 11.7047 8.53938 11.4678C8.44216 11.231 8.39564 10.9765 8.40277 10.7208C8.3833 9.65518 9.23992 8.80269 10.3107 8.78331H10.3496C10.8948 8.78331 11.3426 8.97706 11.7319 9.34518C12.0824 9.71331 12.2771 10.1783 12.2771 10.7014C12.2771 11.2245 12.0824 11.6895 11.7125 12.077C11.3426 12.4645 10.8753 12.6583 10.3496 12.6583ZM18.0833 10.5917C18.0833 5.90292 14.6604 2.58333 10.3333 2.58333C6.00625 2.58333 2.58333 5.90292 2.58333 10.5917C2.58333 13.6142 5.10208 17.6183 10.3333 22.3975C15.5646 17.6183 18.0833 13.6142 18.0833 10.5917ZM10.3333 0C15.7583 0 20.6667 4.15917 20.6667 10.5917C20.6667 14.88 17.2179 19.9563 10.3333 25.8333C3.44875 19.9563 0 14.88 0 10.5917C0 4.15917 4.90833 0 10.3333 0Z" fill="#35C071"/>
</svg>
