<svg width="29" height="30" viewBox="0 0 29 30" fill="none" xmlns="http://www.w3.org/2000/svg">
<path d="M14.3069 7.11794C10.2479 7.11794 6.97396 10.4626 6.97396 14.6091C6.97396 18.7557 10.2479 22.1003 14.3069 22.1003C18.3659 22.1003 21.6399 18.7557 21.6399 14.6091C21.6399 10.4626 18.3659 7.11794 14.3069 7.11794ZM14.3069 19.4794C11.6839 19.4794 9.53954 17.2953 9.53954 14.6091C9.53954 11.923 11.6775 9.73888 14.3069 9.73888C16.9363 9.73888 19.0743 11.923 19.0743 14.6091C19.0743 17.2953 16.9299 19.4794 14.3069 19.4794ZM23.6502 6.81151C23.6502 7.78295 22.8844 8.55881 21.9398 8.55881C20.9889 8.55881 20.2294 7.77643 20.2294 6.81151C20.2294 5.84659 20.9953 5.06422 21.9398 5.06422C22.8844 5.06422 23.6502 5.84659 23.6502 6.81151ZM28.5069 8.58488C28.3984 6.24429 27.8751 4.17101 26.1966 2.46284C24.5245 0.754661 22.4951 0.220042 20.2039 0.102686C17.8426 -0.0342287 10.7649 -0.0342287 8.40354 0.102686C6.11877 0.213522 4.08929 0.748141 2.41081 2.45632C0.732338 4.16449 0.215393 6.23777 0.100517 8.57836C-0.0335057 10.9907 -0.0335057 18.2211 0.100517 20.6334C0.209011 22.974 0.732338 25.0473 2.41081 26.7554C4.08929 28.4636 6.11239 28.9982 8.40354 29.1156C10.7649 29.2525 17.8426 29.2525 20.2039 29.1156C22.4951 29.0047 24.5245 28.4701 26.1966 26.7554C27.8687 25.0473 28.3921 22.974 28.5069 20.6334C28.641 18.2211 28.641 10.9972 28.5069 8.58488ZM25.4563 23.2217C24.9585 24.4996 23.9948 25.4841 22.7376 25.9991C20.8549 26.762 16.3875 26.5859 14.3069 26.5859C12.2264 26.5859 7.75257 26.7554 5.87625 25.9991C4.62538 25.4906 3.66169 24.5061 3.15751 23.2217C2.41081 21.2984 2.58313 16.7346 2.58313 14.6091C2.58313 12.4837 2.41719 7.91335 3.15751 5.99654C3.65531 4.71867 4.61899 3.73419 5.87625 3.21913C7.75895 2.45632 12.2264 2.63235 14.3069 2.63235C16.3875 2.63235 20.8613 2.46284 22.7376 3.21913C23.9885 3.72767 24.9521 4.71215 25.4563 5.99654C26.203 7.91987 26.0307 12.4837 26.0307 14.6091C26.0307 16.7346 26.203 21.3049 25.4563 23.2217Z" fill="#35C071"/>
</svg>
