<svg width="40" height="40" viewBox="0 0 40 40" fill="none" xmlns="http://www.w3.org/2000/svg">
<path d="M30.8333 17C30.8333 21.2833 27.3333 26.65 20.5667 32.85L20 33.35L19.4333 32.8333C12.6667 26.65 9.16666 21.2833 9.16666 17C9.16666 10.6 13.8667 5.83334 20 5.83334C26.1333 5.83334 30.8333 10.5833 30.8333 17Z" fill="white" fill-opacity="0.3"/>
<path d="M20.0167 26.6667C19.7973 26.6679 19.5799 26.6259 19.3768 26.543C19.1738 26.46 18.9891 26.3378 18.8333 26.1833C18.6749 26.0305 18.5502 25.8464 18.4669 25.6426C18.3837 25.4389 18.3439 25.22 18.35 25C18.3333 24.0833 19.0667 23.35 19.9833 23.3333H20.0167C20.4833 23.3333 20.8667 23.5 21.2 23.8167C21.5 24.1333 21.6667 24.5333 21.6667 24.9833C21.6667 25.4333 21.5 25.8333 21.1833 26.1667C20.8667 26.5 20.4667 26.6667 20.0167 26.6667ZM18.55 20.5667C18.55 19.8167 18.7167 19.1667 19.0333 18.6333C19.35 18.0833 19.9167 17.4667 20.7 16.7667C21.1667 16.35 21.5 15.9833 21.7167 15.6667C21.9333 15.35 22.0333 15 22.0333 14.6C22.0333 14.1167 21.85 13.7167 21.5 13.3667C21.15 13.0333 20.6667 12.8667 20.0833 12.8667C19.4667 12.8667 18.85 13.0333 18.4833 13.3667C18.1333 13.7 17.8167 14.1167 17.8167 15H15C15 13.3167 15.7667 12.1167 16.6167 11.3167C17.55 10.4667 18.75 10 20 10C20.9833 10 21.85 10.2 22.6167 10.5833C24.0833 11.3 25 12.8 25 14.4333C25 15.25 24.8333 15.9333 24.4833 16.5167C24.1333 17.1 23.6833 17.7 23 18.3333C22.4667 18.8333 22.1167 19.2667 21.9167 19.6167C21.7167 19.9667 21.6167 20.4333 21.6167 20.9667V21.6667H18.5333V20.5667H18.55ZM30 17C30 10.95 25.5833 6.66668 20 6.66668C14.4167 6.66668 10 10.95 10 17C10 20.9 13.25 26.0667 20 32.2333C26.75 26.0667 30 20.9 30 17ZM20 3.33334C27 3.33334 33.3333 8.70001 33.3333 17C33.3333 22.5333 28.8833 29.0833 20 36.6667C11.1167 29.0833 6.66666 22.5333 6.66666 17C6.66666 8.70001 13 3.33334 20 3.33334Z" fill="white"/>
</svg>
