<svg width="22" height="18" viewBox="0 0 22 18" fill="none" xmlns="http://www.w3.org/2000/svg">
<path d="M2.16673 17.3333C1.57089 17.3333 1.06101 17.1214 0.637061 16.6974C0.213117 16.2735 0.000783257 15.7632 6.10352e-05 15.1667V2.16667C6.10352e-05 1.57083 0.212394 1.06094 0.637061 0.637C1.06173 0.213055 1.57162 0.000722222 2.16673 0H19.5001C20.0959 0 20.6061 0.212333 21.0308 0.637C21.4555 1.06167 21.6675 1.57156 21.6667 2.16667V15.1667C21.6667 15.7625 21.4548 16.2728 21.0308 16.6974C20.6069 17.1221 20.0966 17.3341 19.5001 17.3333H2.16673ZM10.8334 9.75L2.16673 4.33333V15.1667H19.5001V4.33333L10.8334 9.75ZM10.8334 7.58333L19.5001 2.16667H2.16673L10.8334 7.58333ZM2.16673 4.33333V2.16667V15.1667V4.33333Z" fill="#35C071"/>
<rect x="0.833405" y="0.666748" width="20" height="15" fill="#35C071" fill-opacity="0.3"/>
</svg>
