<svg width="27" height="27" viewBox="0 0 27 27" fill="none" xmlns="http://www.w3.org/2000/svg">
<g clip-path="url(#clip0_2444_1109)">
<path d="M13.6992 0.021875C15.132 0 16.5539 0.0109375 17.9758 0C18.0633 1.67344 18.6648 3.37969 19.8898 4.56094C21.1148 5.775 22.843 6.33281 24.5273 6.51875V10.9266C22.9523 10.8719 21.3664 10.5438 19.9336 9.86563C19.3102 9.58125 18.7305 9.22031 18.1617 8.84844C18.1508 12.0422 18.1727 15.2359 18.1398 18.4188C18.0523 19.95 17.5492 21.4703 16.6633 22.7281C15.2305 24.8281 12.7477 26.1953 10.1992 26.2391C8.63516 26.3266 7.0711 25.9 5.73672 25.1125C3.52735 23.8109 1.97422 21.4266 1.74453 18.8672C1.72266 18.3203 1.71172 17.7734 1.7336 17.2375C1.93047 15.1594 2.9586 13.1688 4.55547 11.8125C6.3711 10.2375 8.90859 9.48281 11.282 9.93125C11.3039 11.55 11.2383 13.1688 11.2383 14.7875C10.1555 14.4375 8.88672 14.5359 7.93516 15.1922C7.2461 15.6406 6.7211 16.3297 6.44766 17.1063C6.21797 17.6641 6.2836 18.2766 6.29453 18.8672C6.55703 20.6609 8.28516 22.1703 10.1227 22.0063C11.3477 21.9953 12.518 21.2844 13.1523 20.2453C13.3602 19.8844 13.5898 19.5125 13.6008 19.0859C13.7102 17.1281 13.6664 15.1813 13.6773 13.2234C13.6883 8.81562 13.6664 4.41875 13.6992 0.021875Z" fill="#35C071"/>
</g>
<defs>
<clipPath id="clip0_2444_1109">
<rect width="26.25" height="26.25" fill="white"/>
</clipPath>
</defs>
</svg>
