<svg width="23" height="23" viewBox="0 0 23 23" fill="none" xmlns="http://www.w3.org/2000/svg">
<path d="M19.0409 3.29534C16.9463 1.16931 14.1569 0 11.1926 0C5.07391 0 0.0949795 5.04171 0.0949795 11.2375C0.0949795 13.2168 0.60487 15.1504 1.57466 16.8563L0 22.6776L5.88373 21.1134C7.50338 22.0094 9.32799 22.4802 11.1876 22.4802H11.1926C17.3063 22.4802 22.3952 17.4384 22.3952 11.2426C22.3952 8.24087 21.1354 5.42136 19.0409 3.29534ZM11.1926 20.587C9.53294 20.587 7.90829 20.1365 6.4936 19.2861L6.15867 19.0836L2.66942 20.0099L3.59922 16.5627L3.37927 16.2084C2.45447 14.7202 1.96958 13.0042 1.96958 11.2375C1.96958 6.08954 6.10868 1.89823 11.1976 1.89823C13.6621 1.89823 15.9766 2.87013 17.7162 4.63675C19.4558 6.40338 20.5256 8.74707 20.5206 11.2426C20.5206 16.3957 16.2765 20.587 11.1926 20.587ZM16.2515 13.5914C15.9766 13.4496 14.6118 12.7713 14.3569 12.6802C14.102 12.584 13.917 12.5385 13.732 12.8219C13.5471 13.1054 13.0172 13.7331 12.8522 13.9254C12.6923 14.1127 12.5273 14.1381 12.2524 13.9963C10.6227 13.1712 9.55294 12.5233 8.47817 10.6554C8.19323 10.1594 8.76311 10.1948 9.293 9.12165C9.38298 8.93436 9.33799 8.77237 9.268 8.63064C9.19802 8.48891 8.64314 7.10699 8.41319 6.54511C8.18823 5.99842 7.95828 6.07435 7.78832 6.06423C7.62836 6.0541 7.44339 6.0541 7.25843 6.0541C7.07347 6.0541 6.77354 6.12497 6.51859 6.40338C6.26365 6.68685 5.5488 7.36515 5.5488 8.74707C5.5488 10.129 6.54359 11.4653 6.67856 11.6526C6.81853 11.8399 8.63314 14.6746 11.4175 15.8946C13.1772 16.664 13.867 16.7298 14.7468 16.5982C15.2817 16.5172 16.3865 15.9199 16.6164 15.2618C16.8464 14.6038 16.8464 14.0419 16.7764 13.9254C16.7114 13.7989 16.5264 13.728 16.2515 13.5914Z" fill="#35C071"/>
<path d="M11 1C16.5229 1 21 5.47715 21 11C21 16.5228 16.5229 21 11 21C9.321 21 7.73993 20.5837 6.35062 19.8525L1.00003 21L3.16507 17.2109C1.81075 15.5048 1.00003 13.3476 1.00003 11C1.00003 5.47715 5.47718 1 11 1Z" fill="#35C071" fill-opacity="0.3"/>
</svg>
