<svg width="35" height="28" viewBox="0 0 35 28" fill="none" xmlns="http://www.w3.org/2000/svg">
<path d="M17.5 0C18.9963 0 20.531 0.0385002 22.0185 0.1015L23.7755 0.1855L25.4573 0.28525L27.0323 0.392L28.4707 0.504C30.0321 0.62281 31.5014 1.28876 32.6199 2.38455C33.7384 3.48035 34.4344 4.93569 34.5853 6.49425L34.6552 7.238L34.7865 8.8305C34.909 10.4807 35 12.2798 35 14C35 15.7202 34.909 17.5193 34.7865 19.1695L34.6552 20.762L34.5853 21.5057C34.4344 23.0646 33.7381 24.5201 32.6193 25.616C31.5004 26.7118 30.0306 27.3776 28.469 27.496L27.034 27.6062L25.459 27.7147L23.7755 27.8145L22.0185 27.8985C20.5132 27.9637 19.0067 27.9975 17.5 28C15.9933 27.9975 14.4868 27.9637 12.9815 27.8985L11.2245 27.8145L9.54275 27.7147L7.96775 27.6062L6.52925 27.496C4.96792 27.3772 3.4986 26.7112 2.38008 25.6154C1.26155 24.5197 0.565584 23.0643 0.41475 21.5057L0.34475 20.762L0.2135 19.1695C0.0802073 17.4495 0.00899437 15.7252 0 14C0 12.2798 0.091 10.4807 0.2135 8.8305L0.34475 7.238L0.41475 6.49425C0.565525 4.93597 1.26125 3.48084 2.37941 2.38508C3.49758 1.28933 4.96649 0.623204 6.5275 0.504L7.96425 0.392L9.53925 0.28525L11.2228 0.1855L12.9797 0.1015C14.4856 0.0362726 15.9927 0.00243177 17.5 0ZM17.5 3.5C16.0563 3.5 14.5705 3.5385 13.125 3.598L11.4135 3.68025L9.77025 3.7765L8.22675 3.8815L6.81275 3.99175C6.06934 4.04379 5.36846 4.35772 4.83466 4.87775C4.30086 5.39777 3.96871 6.0902 3.89725 6.832C3.6925 8.94775 3.5 11.5815 3.5 14C3.5 16.4185 3.6925 19.0523 3.89725 21.168C4.046 22.694 5.257 23.8805 6.81275 24.0082L8.22675 24.1168L9.77025 24.2217L11.4135 24.3197L13.125 24.402C14.5705 24.4615 16.0563 24.5 17.5 24.5C18.9437 24.5 20.4295 24.4615 21.875 24.402L23.5865 24.3197L25.2297 24.2235L26.7732 24.1185L28.1873 24.0082C28.9307 23.9562 29.6315 23.6423 30.1653 23.1223C30.6991 22.6022 31.0313 21.9098 31.1028 21.168C31.3075 19.0523 31.5 16.4185 31.5 14C31.5 11.5815 31.3075 8.94775 31.1028 6.832C31.0313 6.0902 30.6991 5.39777 30.1653 4.87775C29.6315 4.35772 28.9307 4.04379 28.1873 3.99175L26.7732 3.88325L25.2297 3.77825L23.5865 3.68025L21.875 3.598C20.4175 3.53544 18.9588 3.50277 17.5 3.5ZM14 9.75625C13.9999 9.58521 14.0416 9.41673 14.1214 9.26547C14.2012 9.1142 14.3168 8.98473 14.4581 8.88831C14.5993 8.79189 14.762 8.73144 14.932 8.71221C15.1019 8.69299 15.274 8.71557 15.4333 8.778L15.575 8.848L22.925 13.09C23.0714 13.1744 23.1952 13.293 23.2859 13.4355C23.3767 13.5781 23.4317 13.7404 23.4463 13.9087C23.4609 14.0771 23.4347 14.2465 23.3698 14.4025C23.3049 14.5585 23.2034 14.6966 23.0738 14.805L22.925 14.91L15.575 19.1537C15.4269 19.2395 15.26 19.2878 15.089 19.2943C14.918 19.3009 14.7479 19.2655 14.5937 19.1913C14.4395 19.1172 14.3057 19.0064 14.204 18.8687C14.1024 18.731 14.036 18.5705 14.0105 18.4013L14 18.2438V9.75625Z" fill="#35C071"/>
</svg>
