<svg width="628" height="133" viewBox="0 0 628 133" fill="none" xmlns="http://www.w3.org/2000/svg">
<path d="M627.68 79.7909C627.893 80.36 628 80.858 628 81.2849C628 81.9963 627.698 82.6188 627.093 83.1524C626.488 83.686 626.079 83.935 625.866 83.8994C624.123 83.5792 623.02 82.1742 622.558 79.6841C622.06 76.9807 621.473 74.7219 620.797 72.9077C619.587 73.0144 618.378 73.1211 617.168 73.2279C615.781 73.4057 614.696 73.8326 613.914 74.5084C613.522 75.6112 613.006 77.5676 612.366 80.3778C611.761 82.9745 611.175 84.9488 610.605 86.3005C610.321 86.9408 609.716 87.1186 608.791 86.8341C607.617 86.4428 606.995 85.9092 606.924 85.2333C606.817 83.8816 607.208 82.0674 608.098 79.7909C609.165 77.1941 609.752 75.3444 609.858 74.2416C609.894 73.9215 609.663 73.5658 609.165 73.1745C608.667 72.7832 608.418 72.4808 608.418 72.2674C608.418 72.0896 608.489 71.9117 608.631 71.7338C608.809 71.5204 609.183 71.3603 609.752 71.2536C610.356 71.1113 610.694 70.9157 610.765 70.6667C611.406 68.8881 612.42 65.5799 613.807 60.7422C614.981 56.5447 616.03 53.3254 616.955 51.0844C617.168 50.5864 617.613 50.3374 618.289 50.3374C618.787 50.3374 619.232 50.4975 619.623 50.8176C620.619 51.6713 621.259 52.9519 621.544 54.6594C621.757 56.1178 621.953 57.5763 622.131 59.0347C623.909 67.4297 625.759 74.3484 627.68 79.7909ZM619.89 69.5995C619.783 68.2834 619.552 66.8071 619.196 65.1708C618.84 63.748 618.502 62.3251 618.182 60.9022C617.115 63.8547 616.19 66.8071 615.408 69.7596C615.977 69.6529 617.471 69.5995 619.89 69.5995Z" fill="#35C071"/>
<path d="M605.771 50.0172C605.273 54.7838 604.792 59.5682 604.33 64.3704C603.725 70.0619 603.423 74.8107 603.423 78.6169C603.423 79.8619 603.459 81.0891 603.53 82.2986C603.565 82.8677 603.352 83.3657 602.889 83.7926C602.463 84.2195 601.965 84.4329 601.395 84.4329C600.293 84.4329 599.368 83.6859 598.621 82.1919C596.344 77.7454 593.516 70.7733 590.137 61.2756C590.066 61.0622 589.977 60.9555 589.87 60.9555C589.621 60.9555 589.461 61.2045 589.39 61.7025C588.785 66.7893 588.483 72.1428 588.483 77.7632C588.483 80.4666 588.554 83.2234 588.696 86.0336C588.732 87.0652 588.429 87.7766 587.789 88.1679C587.54 88.4169 587.273 88.5414 586.989 88.5414C586.74 88.5414 586.42 88.4347 586.028 88.2213C585.495 87.9723 585.157 87.8122 585.015 87.7411C584.552 87.5988 584.268 87.1719 584.161 86.4605C584.125 85.8913 584.09 85.3044 584.054 84.6997C583.947 82.7076 583.894 80.6267 583.894 78.4568C583.894 74.6862 584.107 69.9729 584.534 64.317C585.21 55.7087 585.584 50.942 585.655 50.0172C585.69 49.2346 586.348 48.8433 587.629 48.8433C588.234 48.7722 589.123 49.2168 590.297 50.1772C591.435 52.3471 592.84 55.8687 594.512 60.7421C596.113 65.402 597.571 68.9414 598.888 71.3602C599.421 66.6292 600.257 59.4793 601.395 49.9105C601.502 49.199 602.018 48.8433 602.943 48.8433C603.263 48.8433 603.636 48.8967 604.063 49.0034C604.632 49.1457 604.97 49.2346 605.077 49.2702C605.433 49.4124 605.664 49.6614 605.771 50.0172Z" fill="#35C071"/>
<path d="M580.163 55.3528C580.234 56.3843 580.27 57.4515 580.27 58.5542C580.27 60.9731 580.021 64.6192 579.523 69.4926C579.025 74.3659 578.776 78.0476 578.776 80.5376C578.776 81.4625 578.794 82.3695 578.829 83.2588C578.509 84.2548 577.815 84.7351 576.748 84.6995C575.219 84.6284 574.383 83.9703 574.24 82.7253C574.098 81.4802 574.027 80.1641 574.027 78.7768C574.027 76.3579 574.312 72.7474 574.881 67.9452C575.485 63.143 575.788 59.5502 575.788 57.1669C575.788 56.2421 575.752 55.335 575.681 54.4457C576.037 53.7698 576.642 53.4319 577.495 53.4319C578.171 53.4319 578.847 53.6275 579.523 54.0188C579.665 53.9121 579.772 53.8587 579.843 53.8587C579.95 53.8587 580.003 54.0366 580.003 54.3923C579.968 54.8192 579.968 55.0682 580.003 55.1393C580.039 55.246 580.092 55.3172 580.163 55.3528Z" fill="#35C071"/>
<path d="M581.224 49.1104C580.904 50.391 580.299 51.138 579.41 51.3514C577.098 51.9206 573.078 52.6676 567.351 53.5924C566.64 62.4498 566.284 69.831 566.284 75.7359C566.284 77.9769 566.319 80.1824 566.391 82.3522C566.426 83.0281 566.391 83.5439 566.284 83.8996C566.106 84.4688 565.75 84.7355 565.217 84.7C564.185 84.6644 563.331 84.2198 562.656 83.366C561.98 82.5479 561.606 81.623 561.535 80.5914C561.464 79.2753 561.428 77.888 561.428 76.4295C561.428 74.0818 561.588 70.3645 561.909 65.2778C562.229 60.4044 562.371 56.6872 562.335 54.126C561.375 54.0549 560.041 54.1438 558.334 54.3928C556.377 54.6774 555.025 54.8197 554.278 54.8197C552.535 54.8197 551.113 54.3572 550.01 53.4324C549.583 52.5075 549.37 52.0273 549.37 51.9917C549.37 51.7427 549.494 51.4759 549.743 51.1913C550.881 50.8001 553.211 50.4443 556.733 50.1242C559.828 49.804 562.14 49.2349 563.669 48.4167C564.914 48.808 566.337 49.0037 567.938 49.0037C569.539 49.0037 571.068 48.808 572.527 48.4167C572.954 48.3812 574.039 48.1322 575.782 47.6697C577.062 47.3496 578.129 47.2429 578.983 47.3496C579.623 47.3496 579.89 47.6164 579.783 48.15C580.744 48.15 581.224 48.4701 581.224 49.1104Z" fill="#35C071"/>
<path d="M551.631 50.0172C551.133 54.7838 550.653 59.5682 550.191 64.3704C549.586 70.0619 549.284 74.8107 549.284 78.6169C549.284 79.8619 549.319 81.0891 549.39 82.2986C549.426 82.8677 549.213 83.3657 548.75 83.7926C548.323 84.2195 547.825 84.4329 547.256 84.4329C546.153 84.4329 545.228 83.6859 544.481 82.1919C542.205 77.7454 539.377 70.7733 535.998 61.2756C535.926 61.0622 535.838 60.9555 535.731 60.9555C535.482 60.9555 535.322 61.2045 535.251 61.7025C534.646 66.7893 534.344 72.1428 534.344 77.7632C534.344 80.4666 534.415 83.2234 534.557 86.0336C534.593 87.0652 534.29 87.7766 533.65 88.1679C533.401 88.4169 533.134 88.5414 532.85 88.5414C532.601 88.5414 532.28 88.4347 531.889 88.2213C531.355 87.9723 531.018 87.8122 530.875 87.7411C530.413 87.5988 530.128 87.1719 530.022 86.4605C529.986 85.8913 529.95 85.3044 529.915 84.6997C529.808 82.7076 529.755 80.6267 529.755 78.4568C529.755 74.6862 529.968 69.9729 530.395 64.317C531.071 55.7087 531.444 50.942 531.516 50.0172C531.551 49.2346 532.209 48.8433 533.49 48.8433C534.095 48.7722 534.984 49.2168 536.158 50.1772C537.296 52.3471 538.701 55.8687 540.373 60.7421C541.974 65.402 543.432 68.9414 544.748 71.3602C545.282 66.6292 546.118 59.4793 547.256 49.9105C547.363 49.199 547.879 48.8433 548.803 48.8433C549.124 48.8433 549.497 48.8967 549.924 49.0034C550.493 49.1457 550.831 49.2346 550.938 49.2702C551.293 49.4124 551.525 49.6614 551.631 50.0172Z" fill="#35C071"/>
<path d="M527.823 55.6733C526.506 56.2069 524.568 56.8294 522.007 57.5408C519.445 58.2523 517.507 58.8748 516.191 59.4084C515.871 60.3332 515.639 62.3964 515.497 65.5979C516.066 65.8113 516.724 65.918 517.471 65.918C518.005 65.918 518.841 65.8291 519.979 65.6512C521.117 65.4734 521.953 65.3844 522.487 65.3844C523.483 65.3844 524.337 65.5979 525.048 66.0247C525.546 66.7362 525.795 67.1986 525.795 67.412C525.795 67.661 525.671 67.8567 525.422 67.999C525.35 68.0345 525.101 68.2835 524.675 68.746C524.39 69.0661 524.034 69.2084 523.607 69.1728C522.86 69.3507 521.491 69.4574 519.499 69.493C517.827 69.5285 516.493 69.742 515.497 70.1333C514.821 72.7656 514.483 74.8465 514.483 76.3761C514.483 77.4077 514.626 78.2258 514.91 78.8306C516.582 80.0044 519.481 80.5024 523.607 80.3246C523.892 80.3246 524.194 80.2001 524.514 79.9511C524.835 79.6665 525.101 79.5242 525.315 79.5242C526.311 79.3108 526.969 80.0578 527.289 81.7652C527.396 82.3344 527.289 82.8502 526.969 83.3126C526.684 83.8106 526.257 84.0774 525.688 84.113C521.384 84.2553 517.649 83.9173 514.483 83.0992C513.487 82.8502 512.58 82.2988 511.762 81.4451C510.944 80.5914 510.481 79.6309 510.375 78.5638C510.055 75.469 510.055 72.6944 510.375 70.24C509.379 69.5641 508.934 68.906 509.041 68.2657C509.076 67.9456 509.343 67.661 509.841 67.412C510.375 67.1274 510.677 66.8429 510.748 66.5583C510.819 66.2737 510.962 64.5841 511.175 61.4893C509.183 61.098 508.205 60.351 508.24 59.2483C508.276 58.2167 508.898 57.3986 510.108 56.7938C511.246 56.3314 512.384 55.869 513.523 55.4065C514.839 54.7307 516.493 54.126 518.485 53.5924C520.228 53.1299 521.971 52.6853 523.714 52.2584C523.892 52.2229 524.105 52.2051 524.354 52.2051C525.315 52.2051 526.435 52.5786 527.716 53.3256C527.752 53.4679 527.84 53.7347 527.983 54.126C528.125 54.5172 528.196 54.8018 528.196 54.9797C528.196 55.2643 528.072 55.4955 527.823 55.6733Z" fill="#35C071"/>
<path d="M505.907 69.0127C504.946 71.396 504.324 74.3307 504.039 77.8167C503.861 80.8403 503.701 83.8639 503.559 86.8875C503.488 87.7768 502.901 88.2215 501.798 88.2215C501.478 88.2215 501.176 88.1681 500.891 88.0614C499.362 87.4211 498.597 86.2295 498.597 84.4864C498.597 83.9884 498.668 83.2414 498.81 82.2454C498.953 81.2138 499.024 80.4668 499.024 80.0044C499.166 78.9728 499.344 77.4254 499.557 75.3623C497.103 77.6744 494.328 79.3997 491.233 80.538C490.807 80.6803 490.38 80.7514 489.953 80.7514C488.317 80.7514 486.805 79.8265 485.417 77.9768C484.635 76.9452 484.244 75.6646 484.244 74.135C484.244 72.7833 484.546 71.2004 485.151 69.3862C487.036 63.6236 490.042 57.9855 494.168 52.4718C496.231 49.7328 498.063 48.3633 499.664 48.3633C501.087 48.3633 501.887 48.8969 502.065 49.964C502.207 50.8533 501.905 51.4936 501.158 51.8849C499.913 52.5608 499.255 52.9343 499.184 53.0054C496.196 56.3136 493.457 60.5822 490.967 65.8112C489.437 69.0483 488.672 71.9474 488.672 74.5086C488.672 74.971 488.69 75.4334 488.726 75.8959C488.797 75.9314 488.903 76.1093 489.046 76.4294C489.188 76.714 489.384 76.8029 489.633 76.6962C491.98 75.7714 495.52 73.3347 500.251 69.3862C500.607 69.1016 501.016 68.2835 501.478 66.9318C501.834 65.9358 502.474 65.4377 503.399 65.4377C503.114 65.4377 503.399 65.4022 504.253 65.331C504.68 65.2599 504.964 65.331 505.106 65.5445C505.782 66.5405 506.12 67.3586 506.12 67.9989C506.12 68.3191 506.049 68.657 505.907 69.0127Z" fill="#35C071"/>
<path d="M465.679 79.7909C465.892 80.36 465.999 80.858 465.999 81.2849C465.999 81.9963 465.697 82.6188 465.092 83.1524C464.487 83.686 464.078 83.935 463.865 83.8994C462.122 83.5792 461.019 82.1742 460.557 79.6841C460.059 76.9807 459.472 74.7219 458.796 72.9077C457.586 73.0144 456.377 73.1211 455.167 73.2279C453.78 73.4057 452.695 73.8326 451.913 74.5084C451.521 75.6112 451.006 77.5676 450.365 80.3778C449.76 82.9745 449.174 84.9488 448.604 86.3005C448.32 86.9408 447.715 87.1186 446.79 86.8341C445.616 86.4428 444.994 85.9092 444.923 85.2333C444.816 83.8816 445.207 82.0674 446.097 79.7909C447.164 77.1941 447.751 75.3444 447.857 74.2416C447.893 73.9215 447.662 73.5658 447.164 73.1745C446.666 72.7832 446.417 72.4808 446.417 72.2674C446.417 72.0896 446.488 71.9117 446.63 71.7338C446.808 71.5204 447.182 71.3603 447.751 71.2536C448.355 71.1113 448.693 70.9157 448.764 70.6667C449.405 68.8881 450.419 65.5799 451.806 60.7422C452.98 56.5447 454.029 53.3254 454.954 51.0844C455.167 50.5864 455.612 50.3374 456.288 50.3374C456.786 50.3374 457.231 50.4975 457.622 50.8176C458.618 51.6713 459.258 52.9519 459.543 54.6594C459.756 56.1178 459.952 57.5763 460.13 59.0347C461.908 67.4297 463.758 74.3484 465.679 79.7909ZM457.889 69.5995C457.782 68.2834 457.551 66.8071 457.195 65.1708C456.839 63.748 456.501 62.3251 456.181 60.9022C455.114 63.8547 454.189 66.8071 453.407 69.7596C453.976 69.6529 455.47 69.5995 457.889 69.5995Z" fill="#35C071"/>
<path d="M489.396 82.7255C489.502 82.8678 489.556 83.0279 489.556 83.2058C489.556 84.0239 488.702 84.6464 486.994 85.0733C485.109 83.6148 482.761 81.3738 479.951 78.3502C476.821 74.9709 474.491 72.6232 472.961 71.307C472.855 72.2319 472.659 74.6507 472.374 78.5636C472.197 81.5161 471.876 83.8638 471.414 85.6069C471.343 85.6069 471.112 85.6958 470.72 85.8736C470.365 86.0515 470.062 86.1049 469.813 86.0337C468.248 85.678 467.466 84.5931 467.466 82.7789C467.466 82.2453 467.537 81.5339 467.679 80.6446C467.821 79.613 467.91 78.9727 467.946 78.7237C468.088 76.6606 468.177 74.2061 468.213 71.3604V65.5444C468.213 60.7066 468.479 56.6336 469.013 53.3255C469.369 51.12 471.45 50.1062 475.256 50.2841C477.177 50.3552 478.848 51.3156 480.271 53.1654C481.588 54.8728 482.246 56.7226 482.246 58.7146C482.246 60.3865 481.623 62.0583 480.378 63.7302C479.311 65.2242 477.995 66.3981 476.43 67.2518C475.789 67.6075 475.469 67.9988 475.469 68.4257C475.469 68.8881 475.843 69.4395 476.59 70.0798C477.159 70.5422 477.728 71.0046 478.297 71.4671C478.333 71.5026 480.289 73.2812 484.166 76.8028C486.621 79.0083 488.364 80.9825 489.396 82.7255ZM478.137 58.7679C478.244 58.1277 478.279 57.5585 478.244 57.0605C478.137 56.3135 477.817 55.6376 477.283 55.0329C476.785 54.4282 475.967 54.1258 474.829 54.1258C473.975 54.1258 473.442 54.3926 473.228 54.9262C473.05 55.8155 472.961 56.8293 472.961 57.9676C472.961 58.43 473.015 59.6217 473.121 61.5425C473.193 63.001 473.193 64.1926 473.121 65.1175C476.074 62.9121 477.746 60.7955 478.137 58.7679Z" fill="#35C071"/>
<path d="M448.802 25.7158C444.581 27.4365 438.364 29.444 430.151 31.7383C421.937 34.0325 415.72 36.04 411.499 37.7607C410.472 40.7433 409.731 47.3967 409.275 57.7209C411.1 58.4092 413.21 58.7533 415.606 58.7533C417.317 58.7533 419.998 58.4665 423.648 57.893C427.299 57.3194 429.98 57.0326 431.691 57.0326C434.885 57.0326 437.623 57.7209 439.904 59.0975C441.501 61.3917 442.3 62.883 442.3 63.5713C442.3 64.3743 441.901 65.0052 441.102 65.4641C440.874 65.5788 440.075 66.3818 438.706 67.873C437.794 68.9055 436.653 69.3643 435.284 69.2496C432.889 69.8232 428.497 70.1673 422.108 70.282C416.747 70.3967 412.469 71.085 409.275 72.3469C407.107 80.8357 406.023 87.5464 406.023 92.4791C406.023 95.8058 406.48 98.4442 407.392 100.394C412.754 104.18 422.051 105.786 435.284 105.212C436.197 105.212 437.166 104.811 438.193 104.008C439.22 103.09 440.075 102.631 440.76 102.631C443.954 101.943 446.064 104.352 447.091 109.858C447.433 111.694 447.091 113.357 446.064 114.848C445.152 116.454 443.783 117.315 441.958 117.429C428.154 117.888 416.176 116.798 406.023 114.16C402.829 113.357 399.92 111.579 397.297 108.826C394.673 106.073 393.19 102.975 392.848 99.534C391.821 89.5539 391.821 80.6062 392.848 72.691C389.653 70.5115 388.227 68.3893 388.57 66.3244C388.684 65.292 389.539 64.3743 391.136 63.5713C392.848 62.6536 393.817 61.7359 394.045 60.8182C394.274 59.9004 394.73 54.4516 395.414 44.4715C389.026 43.2096 385.889 40.8006 386.003 37.2445C386.117 33.9178 388.113 31.2794 391.992 29.3293C395.642 27.838 399.293 26.3467 402.943 24.8555C407.278 22.6759 412.64 20.7258 419.028 19.0051C424.504 17.5138 430.037 16.0799 435.626 14.7033C436.197 14.5886 436.881 14.5312 437.68 14.5312C440.76 14.5312 444.353 15.7357 448.46 18.1447C448.574 18.6036 448.859 19.4639 449.316 20.7258C449.772 21.9876 450 22.9053 450 23.4789C450 24.3966 449.601 25.1423 448.802 25.7158Z" fill="black"/>
<path d="M381 7.36897C379.384 22.8553 377.825 38.3995 376.324 54.0015C374.362 72.4926 373.38 87.9212 373.38 100.287C373.38 104.332 373.496 108.319 373.727 112.249C373.842 114.098 373.15 115.716 371.649 117.103C370.263 118.49 368.647 119.183 366.8 119.183C363.221 119.183 360.22 116.756 357.795 111.902C350.407 97.4558 341.228 74.804 330.261 43.9469C330.03 43.2534 329.741 42.9067 329.395 42.9067C328.587 42.9067 328.067 43.7157 327.837 45.3337C325.874 61.8602 324.893 79.2535 324.893 97.5135C324.893 106.297 325.124 115.254 325.585 124.384C325.701 127.735 324.72 130.046 322.641 131.318C321.833 132.127 320.967 132.531 320.044 132.531C319.236 132.531 318.197 132.185 316.927 131.491C315.195 130.682 314.098 130.162 313.637 129.931C312.136 129.469 311.212 128.082 310.866 125.77C310.75 123.921 310.635 122.014 310.519 120.05C310.173 113.578 310 106.817 310 99.7672C310 87.5167 310.693 72.2037 312.078 53.8281C314.272 25.8602 315.484 10.3738 315.715 7.36897C315.83 4.82643 317.966 3.55516 322.122 3.55516C324.085 3.32402 326.971 4.76864 330.78 7.88903C334.475 14.9388 339.035 26.3802 344.461 42.2133C349.656 57.353 354.389 68.8522 358.661 76.7109C360.393 61.3401 363.106 38.1106 366.8 7.02226C367.146 4.71086 368.82 3.55516 371.822 3.55516C372.861 3.55516 374.073 3.72852 375.459 4.07523C377.306 4.5375 378.402 4.82643 378.749 4.942C379.903 5.40428 380.654 6.21327 381 7.36897Z" fill="black"/>
<path d="M195.658 24.7357C195.886 28.0677 196 31.5146 196 35.0764C196 42.8893 195.202 54.6662 193.607 70.407C192.011 86.1479 191.214 98.0397 191.214 106.082C191.214 109.07 191.271 112 191.385 114.872C190.359 118.089 188.137 119.64 184.718 119.525C179.818 119.296 177.14 117.17 176.684 113.149C176.228 109.127 176 104.876 176 100.395C176 92.5821 176.912 80.9201 178.735 65.409C180.672 49.898 181.641 38.2935 181.641 30.5954C181.641 27.6081 181.527 24.6782 181.299 21.8058C182.439 19.6228 184.376 18.5312 187.111 18.5312C189.276 18.5312 191.442 19.1632 193.607 20.427C194.063 20.0824 194.272 20.427 194.5 20.427C194.842 20.427 195.658 21.3823 195.658 22.5312C195.544 23.91 195.544 23.8015 195.658 24.0312C195.772 24.3759 195.43 24.6208 195.658 24.7357Z" fill="black"/>
<path d="M165.96 8.38009C165.96 10.6844 164.284 12.7007 160.933 14.4289C160.009 14.8898 159.027 14.9474 157.987 14.6017C156.369 14.1409 155.502 13.9104 155.387 13.9104C154.693 13.9104 154 14.2561 153.307 14.9474C147.067 21.169 143.947 28.7732 143.947 37.76C143.947 41.1013 144.467 44.2121 145.507 47.0925C145.969 48.3599 150.36 57.2891 158.68 73.8801C164.227 84.9408 167 94.3308 167 102.05C167 108.387 165.44 114.494 162.32 120.37C161.28 122.328 158.68 124.863 154.52 127.974C151.169 130.393 148.164 131.603 145.507 131.603C144.467 131.603 143.484 131.43 142.56 131.085C139.093 129.587 137.36 127.686 137.36 125.381C137.36 123.999 138.227 122.328 139.96 120.37C140.422 119.793 141.52 119.448 143.253 119.333C144.987 119.217 146.142 118.526 146.72 117.259C149.147 112.189 150.36 107.005 150.36 101.705C150.36 94.2156 146.604 83.3854 139.093 69.2139C131.698 54.9272 128 43.5208 128 34.9949C128 27.9667 129.387 21.6875 132.16 16.1571C135.28 9.82029 139.729 5.26928 145.507 2.5041C148.164 1.23673 150.764 0.603047 153.307 0.603047C158.16 0.603047 161.8 1.92802 164.227 4.57798C165.382 5.84535 165.96 7.11272 165.96 8.38009Z" fill="black"/>
<path d="M118.658 24.7357C118.886 28.0677 119 31.5146 119 35.0764C119 42.8893 118.202 54.6662 116.607 70.407C115.011 86.1479 114.214 98.0396 114.214 106.082C114.214 109.07 114.271 112 114.385 114.872C113.359 118.089 111.137 119.64 107.718 119.525C102.818 119.296 100.14 117.17 99.6838 113.149C99.2279 109.127 99 104.876 99 100.395C99 92.5821 99.9117 80.9201 101.735 65.409C103.672 49.898 104.641 38.2935 104.641 30.5954C104.641 27.6081 104.527 24.6782 104.299 21.8058C105.439 19.6228 107.376 18.5312 110.111 18.5312C112.276 18.5312 114.442 19.1632 116.607 20.427C117.063 20.0824 117.405 19.91 117.632 19.91C117.974 19.91 118.145 20.4845 118.145 21.6335C118.031 23.0122 118.031 23.8165 118.145 24.0463C118.259 24.391 118.43 24.6208 118.658 24.7357Z" fill="black"/>
<path d="M89.9258 115.193C90.3834 117.497 88.7245 118.765 84.949 118.995C82.432 119.11 79.8578 118.016 77.2263 115.711C75.0526 113.753 73.3364 110.584 72.0779 106.206C70.9338 102.173 70.2474 96.4696 70.0186 89.0955C69.7897 80.7996 69.3893 75.0961 68.8173 71.9852C67.3299 77.1701 64.8701 84.8899 61.4378 95.1446C59.3785 100.79 58.12 104.017 57.6623 104.823C55.8318 108.395 53.5436 110.008 50.7978 109.662C45.3061 108.395 41.073 105.284 38.0983 100.329C36.1534 97.1033 34.3228 91.976 32.6067 84.9475C30.7761 77.2277 29.2316 72.0428 27.9731 69.3927C23.0535 93.4738 17.7907 111.448 12.1846 123.316C11.3837 125.044 8.98114 124.929 4.97681 122.97C1.65894 121.357 0 119.053 0 116.057C0 115.02 1.2013 111.333 3.6039 104.996C4.63358 102.231 8.63791 88.9226 15.6169 65.0719C18.0195 56.776 20.5365 42.2006 23.1679 21.3456C23.3967 21.1152 23.9688 19.9054 24.884 17.7162C25.4561 16.1031 26.4858 15.2965 27.9731 15.2965C31.863 15.2965 34.5516 16.0455 36.039 17.5434C36.039 20.8848 36.5538 26.3001 37.5835 33.7895C38.7276 41.1636 39.2996 46.7518 39.2996 50.5541C40.3293 57.0065 41.3018 63.5164 42.2171 70.084C43.4756 77.4582 45.7638 83.5073 49.0816 88.2313C60.0649 57.4674 67.0439 33.1558 70.0186 15.2965C70.4762 13.453 72.1923 12.5312 75.167 12.5312C79.4001 12.5312 81.8027 13.9139 82.3748 16.6792C83.1756 20.8271 83.5761 25.6088 83.5761 31.0242C83.5761 32.7525 83.4617 36.5548 83.2328 42.431C83.1184 47.1551 83.1184 51.015 83.2328 54.0107C84.2625 78.3223 86.4935 98.7164 89.9258 115.193Z" fill="black"/>
<path d="M243.601 5.5293C246.519 5.5293 247.946 8.33506 250.5 10.5312C257.19 16.2838 264.372 16.3709 275.5 20.0312C284.257 22.9595 290.351 29.0766 294 36.0312C300.385 48.2933 300.5 53.0313 302.5 62.0312C302.5 66.9727 306 94.0313 281.5 102.531C264.886 108.295 273.916 105.233 254.5 119.531C250 121.531 245.5 121.628 238.5 120.83C227 118.33 222 116.031 213 107.531C205.885 99.8447 202.828 86.9719 202.828 74.71C202.828 61.1668 206.841 46.6168 214.868 31.0605C218.334 24.472 222.53 18.7985 227.456 14.04C233.111 8.36663 238.493 5.52936 243.601 5.5293ZM279.137 66.6904C279.137 56.7137 286.29 26.7848 264.223 28.3193C252.342 29.1457 250.356 34.1922 252.337 46.916C252.337 54.8113 247.384 66.4907 231.537 72.3633C215.69 78.2358 214.7 77.2575 217.671 91.9385C220.642 106.62 234.508 101.726 236.489 98.79C238.47 95.8538 245.387 94.8188 255.292 88.9463C265.197 83.0738 279.137 80.6901 279.137 66.6904Z" fill="#35C071"/>
<path d="M481.5 89.0312C484 89.0312 484.964 90.3331 486.5 91.0312C488.514 91.9465 489.795 93.3024 490 94.5312L490.121 94.3574C490.56 96.795 490.78 99.0999 490.78 101.272C490.78 107.598 489.228 113.695 486.122 119.561C485.087 121.516 482.499 124.046 478.358 127.151C475.023 129.567 472.032 130.774 469.387 130.774C468.352 130.774 467.374 130.602 466.454 130.257C463.004 128.762 461.278 126.864 461.278 124.563C461.278 123.183 462.141 121.516 463.866 119.561C464.326 118.985 465.419 118.64 467.145 118.525C468.869 118.41 470.02 117.72 470.595 116.455C473.01 111.394 474.218 106.218 474.218 100.928C474.218 99.717 474.118 98.4188 473.922 97.0332L474 97.0312C473.524 94.5577 473.5 92.5312 475.5 91.0312C477.5 89.5313 479 89.0312 481.5 89.0312ZM477.15 0C481.981 0 485.604 1.32254 488.02 3.96777C489.17 5.23296 489.745 6.49848 489.745 7.76367C489.745 10.0639 488.077 12.0766 484.742 13.8018C483.822 14.2618 482.844 14.3197 481.809 13.9746C480.199 13.5146 479.336 13.2842 479.221 13.2842C478.531 13.2843 477.84 13.6294 477.15 14.3193C470.94 20.5302 467.834 28.1215 467.834 37.0928C467.834 38.1082 467.883 39.1024 467.979 40.0752C467.976 40.2139 467.982 40.3656 468 40.5312C468.5 45.0311 467.5 44.5313 466 45.5312C462.667 47.753 461.5 46.7312 458.5 45.5312C454.222 43.8199 454.5 44.5312 452.5 40.0312L452.464 40.165C452.13 38.0903 451.962 36.1457 451.962 34.332C451.962 27.3162 453.342 21.048 456.103 15.5273C459.208 9.20148 463.636 4.65789 469.387 1.89746C472.032 0.632331 474.62 5.65122e-05 477.15 0Z" fill="black"/>
</svg>
