<svg width="503" height="133" viewBox="0 0 503 133" fill="none" xmlns="http://www.w3.org/2000/svg">
<path d="M501.96 7.77705C501.96 10.0814 500.284 12.0976 496.933 13.8259C496.009 14.2867 495.027 14.3443 493.987 13.9987C492.369 13.5378 491.502 13.3074 491.387 13.3074C490.693 13.3074 490 13.653 489.307 14.3443C483.067 20.566 479.947 28.1702 479.947 37.157C479.947 40.4982 480.467 43.6091 481.507 46.4894C481.969 47.7568 486.36 56.686 494.68 73.277C500.227 84.3377 503 93.7278 503 101.447C503 107.784 501.44 113.89 498.32 119.766C497.28 121.725 494.68 124.26 490.52 127.371C487.169 129.79 484.164 131 481.507 131C480.467 131 479.484 130.827 478.56 130.482C475.093 128.984 473.36 127.083 473.36 124.778C473.36 123.396 474.227 121.725 475.96 119.766C476.422 119.19 477.52 118.845 479.253 118.73C480.987 118.614 482.142 117.923 482.72 116.656C485.147 111.586 486.36 106.401 486.36 101.102C486.36 93.6126 482.604 82.7823 475.093 68.6108C467.698 54.3241 464 42.9178 464 34.3918C464 27.3637 465.387 21.0844 468.16 15.5541C471.28 9.21724 475.729 4.66623 481.507 1.90105C484.164 0.633684 486.764 0 489.307 0C494.16 0 497.8 1.32498 500.227 3.97493C501.382 5.2423 501.96 6.50967 501.96 7.77705Z" fill="white"/>
<path d="M451.802 26.1846C447.581 27.9053 441.364 29.9128 433.151 32.207C424.937 34.5013 418.72 36.5088 414.499 38.2295C413.472 41.212 412.731 47.8654 412.275 58.1896C414.1 58.8779 416.21 59.2221 418.606 59.2221C420.317 59.2221 422.998 58.9353 426.648 58.3617C430.299 57.7881 432.98 57.5014 434.691 57.5014C437.885 57.5014 440.623 58.1896 442.904 59.5662C444.501 61.8605 445.3 63.3518 445.3 64.04C445.3 64.843 444.901 65.474 444.102 65.9328C443.874 66.0475 443.075 66.8505 441.706 68.3418C440.794 69.3742 439.653 69.8331 438.284 69.7184C435.889 70.2919 431.497 70.6361 425.108 70.7508C419.747 70.8655 415.469 71.5538 412.275 72.8156C410.107 81.3044 409.023 88.0152 409.023 92.9478C409.023 96.2745 409.48 98.913 410.392 100.863C415.754 104.649 425.051 106.255 438.284 105.681C439.197 105.681 440.166 105.28 441.193 104.477C442.22 103.559 443.075 103.1 443.76 103.1C446.954 102.412 449.064 104.821 450.091 110.327C450.433 112.162 450.091 113.826 449.064 115.317C448.152 116.923 446.783 117.783 444.958 117.898C431.154 118.357 419.176 117.267 409.023 114.629C405.829 113.826 402.92 112.048 400.297 109.295C397.673 106.541 396.19 103.444 395.848 100.003C394.821 90.0227 394.821 81.075 395.848 73.1598C392.653 70.9802 391.227 68.858 391.57 66.7932C391.684 65.7607 392.539 64.843 394.136 64.04C395.848 63.1223 396.817 62.2046 397.045 61.2869C397.274 60.3692 397.73 54.9203 398.414 44.9402C392.026 43.6784 388.889 41.2694 389.003 37.7133C389.117 34.3866 391.113 31.7482 394.992 29.798C398.642 28.3068 402.293 26.8155 405.943 25.3242C410.278 23.1447 415.64 21.1945 422.028 19.4738C427.504 17.9825 433.037 16.5486 438.626 15.1721C439.197 15.0574 439.881 15 440.68 15C443.76 15 447.353 16.2045 451.46 18.6135C451.574 19.0723 451.859 19.9327 452.316 21.1945C452.772 22.4564 453 23.3741 453 23.9477C453 24.8654 452.601 25.611 451.802 26.1846Z" fill="white"/>
<path d="M384 7.83772C382.384 23.3241 380.825 38.8683 379.324 54.4702C377.362 72.9614 376.38 88.39 376.38 100.756C376.38 104.801 376.496 108.788 376.727 112.717C376.842 114.567 376.15 116.185 374.649 117.571C373.263 118.958 371.647 119.652 369.8 119.652C366.221 119.652 363.22 117.225 360.795 112.371C353.407 97.9245 344.228 75.2728 333.261 44.4156C333.03 43.7222 332.741 43.3755 332.395 43.3755C331.587 43.3755 331.067 44.1845 330.837 45.8025C328.874 62.329 327.893 79.7222 327.893 97.9823C327.893 106.766 328.124 115.722 328.585 124.852C328.701 128.204 327.72 130.515 325.641 131.787C324.833 132.596 323.967 133 323.044 133C322.236 133 321.197 132.653 319.927 131.96C318.195 131.151 317.098 130.631 316.637 130.4C315.136 129.937 314.212 128.551 313.866 126.239C313.75 124.39 313.635 122.483 313.519 120.518C313.173 114.047 313 107.286 313 100.236C313 87.9855 313.693 72.6725 315.078 54.2968C317.272 26.3289 318.484 10.8425 318.715 7.83772C318.83 5.29518 320.966 4.02391 325.122 4.02391C327.085 3.79277 329.971 5.23739 333.78 8.35778C337.475 15.4075 342.035 26.849 347.461 42.6821C352.656 57.8217 357.389 69.3209 361.661 77.1797C363.393 61.8089 366.106 38.5793 369.8 7.49101C370.146 5.17961 371.82 4.02391 374.822 4.02391C375.861 4.02391 377.073 4.19727 378.459 4.54398C380.306 5.00625 381.402 5.29518 381.749 5.41075C382.903 5.87303 383.654 6.68202 384 7.83772Z" fill="white"/>
<path d="M195.658 25.2044C195.886 28.5364 196 31.9833 196 35.5451C196 43.3581 195.202 55.135 193.607 70.8758C192.011 86.6166 191.214 98.5084 191.214 106.551C191.214 109.538 191.271 112.468 191.385 115.341C190.359 118.558 188.137 120.109 184.718 119.994C179.818 119.764 177.14 117.639 176.684 113.617C176.228 109.596 176 105.345 176 100.864C176 93.0508 176.912 81.3888 178.735 65.8778C180.672 50.3668 181.641 38.7622 181.641 31.0641C181.641 28.0768 181.527 25.147 181.299 22.2746C182.439 20.0915 184.376 19 187.111 19C189.276 19 191.442 19.6319 193.607 20.8958C194.063 20.5511 194.272 20.8958 194.5 20.8958C194.842 20.8958 195.658 21.851 195.658 23C195.544 24.3788 195.544 24.2702 195.658 24.5C195.772 24.8447 195.43 25.0895 195.658 25.2044Z" fill="white"/>
<path d="M164.96 7.77705C164.96 10.0814 163.284 12.0976 159.933 13.8259C159.009 14.2867 158.027 14.3443 156.987 13.9987C155.369 13.5378 154.502 13.3074 154.387 13.3074C153.693 13.3074 153 13.653 152.307 14.3443C146.067 20.566 142.947 28.1702 142.947 37.157C142.947 40.4982 143.467 43.6091 144.507 46.4894C144.969 47.7568 149.36 56.686 157.68 73.277C163.227 84.3377 166 93.7278 166 101.447C166 107.784 164.44 113.89 161.32 119.766C160.28 121.725 157.68 124.26 153.52 127.371C150.169 129.79 147.164 131 144.507 131C143.467 131 142.484 130.827 141.56 130.482C138.093 128.984 136.36 127.083 136.36 124.778C136.36 123.396 137.227 121.725 138.96 119.766C139.422 119.19 140.52 118.845 142.253 118.73C143.987 118.614 145.142 117.923 145.72 116.656C148.147 111.586 149.36 106.401 149.36 101.102C149.36 93.6126 145.604 82.7823 138.093 68.6108C130.698 54.3241 127 42.9178 127 34.3918C127 27.3637 128.387 21.0844 131.16 15.5541C134.28 9.21724 138.729 4.66623 144.507 1.90105C147.164 0.633684 149.764 0 152.307 0C157.16 0 160.8 1.32498 163.227 3.97493C164.382 5.2423 164.96 6.50967 164.96 7.77705Z" fill="white"/>
<path d="M118.658 25.2044C118.886 28.5364 119 31.9833 119 35.5451C119 43.3581 118.202 55.135 116.607 70.8758C115.011 86.6166 114.214 98.5084 114.214 106.551C114.214 109.538 114.271 112.468 114.385 115.341C113.359 118.558 111.137 120.109 107.718 119.994C102.818 119.764 100.14 117.639 99.6838 113.617C99.2279 109.596 99 105.345 99 100.864C99 93.0508 99.9117 81.3888 101.735 65.8778C103.672 50.3668 104.641 38.7622 104.641 31.0641C104.641 28.0768 104.527 25.147 104.299 22.2746C105.439 20.0915 107.376 19 110.111 19C112.276 19 114.442 19.6319 116.607 20.8958C117.063 20.5511 117.405 20.3788 117.632 20.3788C117.974 20.3788 118.145 20.9532 118.145 22.1022C118.031 23.481 118.031 24.2852 118.145 24.515C118.259 24.8597 118.43 25.0895 118.658 25.2044Z" fill="white"/>
<path d="M89.9258 115.662C90.3834 117.966 88.7245 119.234 84.949 119.464C82.432 119.579 79.8578 118.485 77.2263 116.18C75.0526 114.221 73.3364 111.053 72.0779 106.674C70.9338 102.642 70.2474 96.9383 70.0186 89.5642C69.7897 81.2683 69.3893 75.5649 68.8173 72.4539C67.3299 77.6389 64.8701 85.3587 61.4378 95.6133C59.3785 101.259 58.12 104.485 57.6623 105.292C55.8318 108.864 53.5436 110.477 50.7978 110.131C45.3061 108.864 41.073 105.753 38.0983 100.798C36.1534 97.5721 34.3228 92.4447 32.6067 85.4163C30.7761 77.6965 29.2316 72.5115 27.9731 69.8615C23.0535 93.9426 17.7907 111.917 12.1846 123.785C11.3837 125.513 8.98114 125.398 4.97681 123.439C1.65894 121.826 0 119.522 0 116.526C0 115.489 1.2013 111.802 3.6039 105.465C4.63358 102.699 8.63791 89.3914 15.6169 65.5407C18.0195 57.2448 20.5365 42.6693 23.1679 21.8144C23.3967 21.584 23.9688 20.3741 24.884 18.1849C25.4561 16.5718 26.4858 15.7653 27.9731 15.7653C31.863 15.7653 34.5516 16.5142 36.039 18.0121C36.039 21.3535 36.5538 26.7689 37.5835 34.2582C38.7276 41.6324 39.2996 47.2206 39.2996 51.0229C40.3293 57.4752 41.3018 63.9852 42.2171 70.5528C43.4756 77.9269 45.7638 83.976 49.0816 88.7001C60.0649 57.9361 67.0439 33.6245 70.0186 15.7653C70.4762 13.9218 72.1923 13 75.167 13C79.4001 13 81.8027 14.3826 82.3748 17.1479C83.1756 21.2959 83.5761 26.0776 83.5761 31.4929C83.5761 33.2212 83.4617 37.0235 83.2328 42.8998C83.1184 47.6238 83.1184 51.4837 83.2328 54.4795C84.2625 78.7911 86.4935 99.1851 89.9258 115.662Z" fill="white"/>
<path d="M246.601 5.99805C249.519 5.99805 250.946 8.80381 253.5 11C260.19 16.7526 267.372 16.8397 278.5 20.5C287.257 23.4283 293.351 29.5454 297 36.5C303.385 48.7621 303.5 53.5 305.5 62.5C305.5 67.4415 309 94.5 284.5 103C267.886 108.764 276.916 105.702 257.5 120C253 122 248.5 122.097 241.5 121.299C230 118.799 225 116.5 216 108C208.885 100.313 205.828 87.4407 205.828 75.1787C205.828 61.6356 209.841 47.0856 217.868 31.5293C221.334 24.9407 225.53 19.2672 230.456 14.5088C236.111 8.83538 241.493 5.99811 246.601 5.99805ZM282.137 67.1592C282.137 57.1825 289.29 27.2536 267.223 28.7881C255.342 29.6144 253.356 34.6609 255.337 47.3848C255.337 55.2801 250.384 66.9595 234.537 72.832C218.69 78.7045 217.7 77.7263 220.671 92.4072C223.642 107.089 237.508 102.195 239.489 99.2588C241.47 96.3225 248.387 95.2876 258.292 89.415C268.197 83.5425 282.137 81.1589 282.137 67.1592Z" fill="white"/>
</svg>
