<svg width="17" height="21" viewBox="0 0 17 21" fill="none" xmlns="http://www.w3.org/2000/svg">
<path d="M0 18.4438V1.62501C0 1.16459 0.1625 0.778381 0.4875 0.466381C0.8125 0.154381 1.19167 -0.00107771 1.625 5.62283e-06C1.76042 5.62283e-06 1.90287 0.0200476 2.05237 0.0601309C2.20187 0.100214 2.34379 0.161422 2.47812 0.243756L15.7219 8.65313C15.9656 8.81563 16.1487 9.01876 16.2711 9.26251C16.3935 9.50626 16.4542 9.76355 16.4531 10.0344C16.452 10.3052 16.3914 10.5625 16.2711 10.8063C16.1509 11.05 15.9678 11.2531 15.7219 11.4156L2.47812 19.825C2.34271 19.9063 2.20079 19.9675 2.05237 20.0086C1.90396 20.0498 1.7615 20.0698 1.625 20.0688C1.19167 20.0688 0.8125 19.9128 0.4875 19.6008C0.1625 19.2888 0 18.9031 0 18.4438ZM3.25 15.4781L11.7812 10.0344L3.25 4.59063V15.4781Z" fill="white"/>
</svg>
