<svg width="208" height="56" viewBox="0 0 208 56" fill="none" xmlns="http://www.w3.org/2000/svg">
<path d="M65.6585 37.74L72.9641 7.88798H79.2491V51.4645H73.2303V27.0095L67.856 51.4645H63.5928L58.0623 27.0095V51.4645H51.9775V7.88798H58.2625L65.6585 37.74Z" fill="white"/>
<path d="M82.4042 12.953H88.6892V51.4671H82.4042V12.953Z" fill="white"/>
<path d="M91.4016 20.5039C91.4016 15.1143 94.4073 12.4182 100.419 12.4182C106.43 12.4182 109.458 15.1143 109.458 20.5039V25.6787H103.173V20.5039C103.173 18.7725 102.262 17.9056 100.441 17.9056H100.397C98.59 17.9056 97.6866 18.7725 97.6866 20.5039V23.9912C97.6866 25.708 99.6473 27.8107 103.571 30.2991C107.495 32.773 109.456 35.7401 109.456 39.2054V44.07C109.456 49.4744 106.45 52.1778 100.438 52.1778C94.4122 52.1631 91.3991 49.4597 91.3991 44.07V38.8953H97.6841V44.07C97.6841 45.8015 98.6022 46.6684 100.438 46.6684C102.275 46.6684 103.171 45.8015 103.171 44.07V39.6719C103.171 37.8061 101.21 35.6302 97.2861 33.1417C93.3623 30.6679 91.4016 27.6641 91.4016 24.1231V20.5039Z" fill="white"/>
<path d="M112.169 12.953H118.454V51.4671H112.169V12.953Z" fill="white"/>
<path d="M139.218 44.07C139.218 49.4597 136.205 52.1631 130.181 52.1778C124.17 52.1778 121.164 49.4768 121.164 44.07V20.5039C121.164 15.1143 124.17 12.4182 130.181 12.4182C136.193 12.4182 139.218 15.1143 139.218 20.5039V44.07ZM132.935 20.5039C132.935 18.7725 132.025 17.9056 130.203 17.9056H130.159C128.352 17.9056 127.449 18.7725 127.449 20.5039V44.07C127.449 45.8015 128.359 46.6684 130.181 46.6684C132.003 46.6684 132.935 45.8015 132.935 44.07V20.5039Z" fill="white"/>
<path d="M141.821 12.953H148.106L154.056 35.2956V12.953H159.875V51.4671H153.59L147.861 29.8351V51.4671H141.821V12.953Z" fill="white"/>
<path d="M184.448 20.6063C183.193 21.2071 181.555 20.9336 180.244 21.0972C178.659 21.3145 177.021 21.9177 175.439 22.3524C174.401 22.6259 173.253 22.6797 172.489 23.444C171.505 24.4282 171.234 27.5956 170.904 29.0144C170.687 29.9424 170.687 31.0902 170.25 31.8546C170.304 31.691 167.684 33.6031 169.266 33.6031C169.32 33.4932 169.212 33.4395 169.049 33.4395C169.158 33.3858 171.341 33.4395 170.633 33.0561C171.017 33.0024 171.451 33.0561 171.725 32.9462C170.687 32.7826 173.253 32.2917 173.473 32.2355C174.237 32.0719 175.712 31.4174 176.476 31.6348C175.766 31.9083 175.001 32.1818 174.237 32.3992C174.237 32.3992 177.731 31.6885 179.37 31.4712C179.37 31.5249 179.316 31.5811 179.37 31.6348C179.917 31.5811 180.354 31.5811 180.898 31.4174C180.298 30.8704 179.533 31.1439 178.659 31.2001C179.15 31.0365 179.807 31.0902 180.298 30.8729C180.788 30.9827 181.118 31.2563 181.389 31.6372C181.443 31.6372 181.553 31.7471 181.716 31.9107C182.1 32.2941 182.371 33.0024 182.317 33.6031C182.207 35.7326 180.732 36.4432 178.823 36.7705C176.2 37.2076 173.58 37.591 171.014 38.1918C169.593 38.519 168.775 38.5752 168.121 39.8304C167.957 40.2676 166.919 44.0919 167.193 44.3629C167.303 44.4728 169.158 43.4887 169.322 43.4349C169.432 43.5986 166.756 44.6364 166.482 45.0736C166.319 45.0198 166.482 44.91 166.372 44.8562C166.209 45.3471 166.045 45.1835 165.445 45.6206C165.498 45.7305 165.662 45.5107 165.772 45.6206C164.133 47.1493 166.973 46.5486 166.919 47.6402C166.702 47.5865 166.646 47.4766 166.429 47.4229C166.646 47.5328 167.85 49.0078 167.74 49.0078C167.522 49.1714 166.429 48.954 167.466 49.4986C167.413 49.335 168.45 48.7343 169.051 48.407C171.4 47.0956 175.331 45.9503 178.007 45.5131C178.935 45.3495 180.083 45.4594 181.064 45.4033C180.901 45.4033 180.737 45.5131 180.464 45.6206C180.464 46.004 180.791 46.004 181.501 45.6743C181.501 45.5107 181.448 45.4008 181.284 45.4008L182.212 45.2372C181.721 44.9637 181.064 44.8538 180.41 44.8538C178.608 44.8538 176.423 45.6182 175.004 46.0016C172.655 46.6023 169.434 47.1493 167.796 49.0053C167.579 48.2947 168.78 47.7501 170.199 47.2568C169.925 47.3105 169.708 47.3105 169.598 47.2031C171.673 46.0016 174.022 45.6743 176.261 44.9637C176.151 44.5265 172.33 46.2751 172.22 45.8917C172.548 45.7281 173.041 45.5083 173.585 45.2909C173.094 45.4008 172.657 45.4545 172.384 45.5644C172.767 45.4008 175.988 44.253 176.151 44.4728C177.9 44.0357 179.646 43.7622 180.739 44.1456C180.412 44.0357 180.302 44.0919 180.302 44.2555H181.45C181.45 44.529 179.758 44.3654 179.375 44.2555C179.321 44.3654 179.375 44.4191 179.538 44.3654C179.484 44.4191 179.321 44.4191 179.101 44.4753C179.155 44.4753 179.155 44.4215 179.211 44.4215C179.211 44.148 178.994 44.148 178.557 44.4215C178.557 44.4753 178.61 44.5314 178.666 44.5852C178.012 44.6951 177.245 44.9124 177.302 45.0223C177.792 44.9686 181.452 44.2017 181.452 44.6389C181.015 44.6389 180.525 44.6389 180.088 44.6926C180.088 44.6926 181.943 44.8025 182.217 44.8562C181.999 44.7463 181.78 44.6926 181.616 44.5827C181.833 44.5827 182.107 44.6364 182.327 44.6926C182.38 44.2555 180.197 43.9282 182.217 44.2555C182.327 44.0381 181.943 44.2555 182.163 43.8721C181.452 43.6547 180.688 43.5986 179.924 43.5986C180.471 43.5448 180.908 43.3812 181.345 43.2151C180.908 43.1052 178.122 42.8317 178.015 42.9416C178.505 42.1773 180.801 43.4325 181.345 42.8879C181.2 42.8146 181.072 42.7235 180.962 42.6144C182.654 43.3788 184.402 45.7818 182.6 47.3667C181.399 48.4046 178.613 47.8575 177.084 48.0773C174.572 48.4607 172.059 49.2788 169.603 49.8796C168.948 50.0432 166.927 51.2447 166.436 51.0274C166.436 51.0274 166.162 50.5902 165.999 50.263C165.615 50.4803 165.508 49.6085 166.053 49.8259C165.999 49.716 165.999 49.6622 166.053 49.5524C166.053 49.4425 166.162 49.335 166.38 49.2788C166.216 49.2251 165.833 48.788 165.725 48.8954C166.053 49.1128 165.889 48.9492 166.109 49.3863C164.907 48.7318 165.945 49.44 166.055 49.5499C165.782 49.7135 165.344 49.3863 165.127 49.2764C165.344 49.8234 165.454 50.6415 165.782 50.9688C165.071 51.1324 164.907 51.296 165.291 51.3522C163.652 51.7356 161.85 50.0969 161.196 48.8393C160.105 46.7635 160.485 44.087 160.813 41.9037C161.03 40.8659 161.523 39.6106 161.467 38.5727C161.357 37.8084 160.92 37.2076 160.92 36.3871C160.92 34.8583 161.411 34.9121 162.175 33.9279C162.829 33.1098 162.886 32.5628 163.159 31.3613C163.542 29.5053 163.977 27.5931 164.307 25.7347C164.417 25.134 164.797 24.3696 164.69 23.7688C164.526 23.0045 163.872 22.4037 163.762 21.5294C163.435 19.0165 165.564 18.9091 166.328 17.0507C166.656 16.2863 166.546 15.3583 166.983 14.6477C167.31 14.1006 167.857 13.937 168.238 13.556C168.238 13.9394 167.527 16.1227 167.801 16.3425C168.565 15.5781 167.691 16.2326 168.184 15.4145C168.13 15.5781 168.13 15.688 168.238 15.7417C168.401 14.9236 168.729 15.688 168.948 15.1947C169.112 15.1947 168.785 16.5061 168.785 16.5598C168.785 16.6135 169.495 14.3741 169.769 14.1006C169.659 14.484 169.659 14.9212 169.823 15.3559C170.26 14.7014 170.26 14.5353 170.477 13.7172C170.804 14.0445 170.477 14.4816 170.641 14.9187C170.75 14.6452 170.804 14.2642 171.024 14.0445C171.407 14.3717 170.97 14.9724 171.134 15.3559C171.571 14.4279 171.08 14.1543 172.062 14.4816C172.389 14.5915 172.609 15.0823 172.88 15.3559C173.644 16.1202 172.989 16.0103 173.971 16.174C174.572 16.2838 175.827 15.4633 176.484 15.2997C177.848 14.8088 180.034 13.9883 181.89 13.9883C182.981 13.9883 183.965 14.2618 184.619 15.0799C184.346 14.97 183.909 14.9163 183.418 14.97L183.745 14.7527C183.091 14.4791 181.396 15.1361 180.305 15.5708C178.994 15.9542 177.792 16.4987 177.302 16.9359C177.792 16.7723 183.528 15.1873 183.528 15.4609C183.528 15.4609 181.726 15.898 181.726 16.0616C182.38 15.8443 183.091 15.6782 183.748 15.7344C181.782 16.2814 179.216 16.5549 177.468 17.6465C177.741 17.7564 178.068 17.7564 178.452 17.7003C179.489 17.3168 180.363 17.0458 181.074 16.9359L178.835 17.5904C179.545 17.4805 180.363 17.207 181.074 16.9359C181.11 16.9359 181.146 16.918 181.184 16.8822L181.13 16.9359C181.166 16.9001 181.203 16.8822 181.24 16.8822C181.514 16.8822 181.787 16.8284 181.894 16.8822C181.511 16.9359 181.347 17.0458 181.457 17.2656C181.785 17.1019 182.168 17.0482 182.549 16.992C181.294 17.8663 179.436 17.7564 178.124 18.577C180.527 18.0861 182.986 17.1557 185.332 16.3913C185.222 16.2814 185.115 16.2277 185.005 16.2277C186.534 15.9004 185.716 19.9958 184.458 20.5966L184.448 20.6063ZM161.731 47.3691C161.513 46.1676 161.184 44.9661 161.294 43.4911C161.404 42.0161 161.731 40.5972 162.004 39.1759C161.95 39.1222 159.711 47.479 161.731 47.3691ZM161.95 42.3995C161.95 42.3995 161.841 43.0002 161.787 43.7646C161.787 43.2738 161.733 42.8366 161.787 42.4532C161.897 41.3054 162.224 40.2138 162.334 39.1222C162.007 39.0685 161.079 45.2396 161.623 45.9503L161.787 45.4033C161.787 45.6768 161.841 45.8941 162.004 45.9503C162.278 45.4594 161.95 43.0564 161.95 42.3995ZM161.787 45.4033C161.733 44.9661 161.733 44.3116 161.787 43.7646C161.787 44.3116 161.841 44.9124 161.787 45.4033ZM162.441 40.8146C162.441 41.1418 162.114 41.9062 162.331 41.7987C162.331 41.9624 162.278 42.0185 162.114 42.0185C162.06 42.8928 162.114 42.9465 162.278 43.6034C162.278 43.3299 162.605 40.817 162.441 40.817V40.8146ZM162.495 46.2214C162.441 46.0577 162.331 44.2017 162.331 43.9282C161.784 43.9282 162.331 45.9503 162.495 46.2214ZM162.605 45.5131V44.9124C162.278 44.9124 162.715 46.1139 162.822 46.0602C162.876 45.7329 162.768 45.5693 162.605 45.5131ZM162.605 40.2138C162.822 40.2676 162.878 40.1039 162.768 39.6668C162.551 39.6131 162.495 39.7767 162.605 40.2138ZM163.042 43.2176C163.042 42.4532 163.479 40.5411 163.205 39.9403C162.495 40.651 162.278 45.5107 163.205 46.0577C163.479 45.4033 163.042 43.9282 163.042 43.2176ZM163.425 33.0048C163.479 32.9511 163.699 32.5677 163.535 32.5677C163.481 32.6776 163.425 32.8412 163.425 33.0048ZM163.643 42.8903C163.425 42.8903 163.589 45.4033 163.696 45.6768C163.86 45.4594 163.643 43.1101 163.643 42.8903ZM163.806 41.3054C163.696 41.3054 163.589 42.6168 163.643 42.7805C163.806 42.397 163.752 41.6888 163.806 41.3054ZM163.97 32.2404L163.696 33.1684C163.97 33.2221 164.023 32.2404 163.97 32.2404ZM165.608 25.0289C165.391 25.5198 165.225 26.0131 165.061 26.6139C165.171 26.123 165.279 25.7933 165.225 25.7933C165.388 25.4099 165.716 24.7017 165.279 24.4282C164.788 25.4661 164.732 26.8849 164.514 27.979C164.297 29.1268 163.696 30.5456 163.75 31.6934C163.804 31.6934 164.077 30.8729 164.297 29.8374C164.187 30.6555 164.08 31.4223 164.023 32.1305C164.351 32.1305 165.716 25.0289 165.608 25.0289ZM163.916 40.4312C163.752 40.7584 163.752 40.9782 163.806 41.1955C163.97 40.8683 163.97 40.5411 163.916 40.4312ZM164.461 46.7147C164.243 47.1518 164.624 47.2055 164.133 47.1518C164.187 47.2055 164.133 48.3533 164.788 48.1359C164.514 47.8087 164.57 47.8624 164.898 47.9723C164.951 47.9186 164.788 47.5352 164.68 47.4253C164.844 47.3154 165.064 47.2617 165.281 47.2617C165.391 47.5352 165.554 47.5889 165.608 47.4253C165.498 47.2617 164.624 46.8245 164.461 46.7147ZM165.064 26.6139C164.9 27.432 164.573 28.7434 164.299 29.8374C164.517 28.7458 164.79 27.6517 165.064 26.6139ZM164.353 44.8025C164.353 44.9124 164.353 45.076 164.407 45.2396C164.57 45.1859 164.407 44.8025 164.353 44.8025ZM164.407 43.982V44.529C164.461 44.529 164.461 43.982 164.407 43.982ZM164.68 32.1843C164.517 32.0744 164.353 32.8949 164.463 32.8949L164.68 32.1843ZM165.007 45.9478C164.734 46.0016 164.68 46.5486 164.461 46.4387C164.57 46.7122 164.788 46.8758 165.115 46.9296C165.005 46.7659 165.005 46.2189 165.005 45.9454L165.007 45.9478ZM164.517 41.9062V42.4532C164.517 42.2896 164.68 41.9062 164.517 41.9062ZM164.898 30.929C164.844 31.1464 164.734 31.4199 164.68 31.6934C164.898 31.5298 164.954 31.0389 164.898 30.929ZM164.954 42.1797C164.627 42.9978 164.736 44.1456 164.68 45.0198C164.734 45.0198 164.954 42.4532 164.954 42.1797ZM165.227 34.1501C165.064 34.1501 164.79 34.3675 164.79 34.5335C164.954 34.4236 165.064 34.26 165.227 34.1501ZM165.227 40.7609C164.954 40.651 164.9 40.8707 165.01 41.3079C165.283 41.3616 165.337 41.198 165.227 40.7609ZM165.227 29.8911C165.01 29.7812 164.9 30.001 165.01 30.4382C165.227 30.5481 165.283 30.3283 165.227 29.8911ZM165.391 49.0078C165.337 48.8979 165.064 48.954 165.007 49.0078C165.061 49.1714 165.225 49.1714 165.391 49.0078ZM165.117 44.8562C165.281 44.8562 165.227 43.7084 165.227 43.6547C165.064 43.6547 165.117 44.7463 165.117 44.8562ZM165.664 43.7646C165.554 43.9282 165.554 44.0381 165.501 44.2017C165.501 43.8183 165.174 44.4191 165.447 44.7488C165.774 44.5314 165.83 44.2017 165.664 43.7646ZM165.772 42.2896C165.335 42.4532 165.608 42.5069 165.662 43.4374C165.772 43.4374 165.772 42.3458 165.772 42.2896ZM165.935 50.263C165.882 50.0994 165.772 49.9895 165.772 49.9895C165.825 50.0994 165.882 50.2068 165.935 50.263ZM165.991 41.9062C166.265 41.9599 166.265 41.7426 166.155 41.3592C165.938 41.3054 165.882 41.5228 165.991 41.9062ZM166.866 40.2676C166.482 40.1039 165.991 44.0357 165.991 44.4728C166.209 44.5827 166.809 40.6485 166.866 40.2676ZM166.429 48.788C166.319 48.5145 166.319 48.4046 166.211 48.6781C165.884 48.4607 165.938 48.788 166.429 48.788ZM167.247 16.5647C167.137 16.4011 167.3 15.1434 167.52 15.3095C167.52 15.0359 167.684 14.4914 167.52 14.2178C167.303 14.8186 166.536 16.6746 166.646 17.8224C167.356 17.605 167.356 16.511 167.247 16.5671V16.5647ZM166.919 31.476L166.756 32.1305C166.919 32.1843 166.976 31.5835 166.919 31.476ZM167.684 45.7842C167.466 45.9478 167.193 46.0577 166.973 46.1676C167.027 45.7842 167.574 45.5131 167.684 45.7842ZM166.973 49.882C166.973 50.0994 167.3 50.3192 167.52 50.2654C167.41 50.0481 167.193 49.9382 166.973 49.882ZM167.193 30.5456C167.356 30.382 167.684 29.3441 167.41 29.2904C167.356 29.7275 166.919 30.8191 167.083 31.1464C167.3 31.0926 167.356 30.8729 167.193 30.5456ZM167.247 50.3192C167.083 50.3729 167.083 50.4828 167.247 50.5365C167.356 50.4828 167.356 50.3729 167.247 50.3192ZM171.944 45.1297C174.13 44.3116 176.313 43.8745 178.608 43.7084C177.734 43.8721 176.86 44.0919 176.042 44.2555C175.277 44.4191 170.963 46.1115 170.308 45.8941C170.255 45.8941 170.199 45.9478 170.145 45.9478C169.217 46.385 167.742 46.8221 167.195 47.7501C167.032 47.4766 167.195 47.2592 167.359 46.9857C167.522 47.0394 167.469 47.0956 167.249 47.2592C167.359 47.2592 168.013 46.8758 168.724 46.5486C168.287 46.6585 167.85 46.7122 167.469 46.6585C167.96 46.1115 170.692 45.1835 173.475 44.4728C172.985 44.6364 172.438 44.8562 171.947 45.1273L171.944 45.1297ZM167.52 16.2374C167.684 15.6904 168.121 14.6525 167.847 14.0518C167.737 14.1055 167.41 16.2374 167.52 16.2374ZM167.63 26.123C167.793 26.1767 167.847 26.0693 167.74 25.6859C167.576 25.6321 167.522 25.7958 167.63 26.123ZM168.174 26.2866C168.011 26.2329 167.627 28.4723 167.574 28.7458C167.737 28.7995 168.121 26.5601 168.174 26.2866ZM167.737 48.2971C167.847 47.9699 167.955 47.9137 168.065 48.0236C167.955 48.3508 167.847 48.407 167.737 48.2971ZM168.174 45.8941C167.957 46.0577 167.847 46.0577 167.847 45.8941C168.011 45.7305 168.121 45.7305 168.174 45.8941ZM167.847 49.5548L168.995 48.7904C168.721 48.7904 167.903 49.3375 167.847 49.5548ZM168.284 49.7721C168.067 49.7184 167.957 49.7721 167.957 49.9358L168.284 49.7721ZM168.34 25.5222C168.177 25.6321 168.123 25.9057 168.231 26.123L168.34 25.5222ZM168.775 13.451C168.775 13.6146 168.721 13.7783 168.721 13.8882C168.338 13.6708 168.394 13.5609 168.775 13.451ZM171.615 44.4753C171.668 44.4215 171.725 44.3654 171.725 44.3116C171.507 44.3654 171.288 44.3654 171.07 44.3116C170.416 44.8025 169.432 45.076 168.668 45.1859C168.504 44.6389 176.969 42.5631 177.023 42.8928C176.696 42.9465 176.259 43.0564 175.822 43.22C176.64 43.0027 177.514 42.8366 177.897 43.0564C177.133 43.6034 175.221 43.7109 174.347 43.7671C174.457 43.7133 174.621 43.6034 174.838 43.5497C174.621 43.6034 174.347 43.7133 174.074 43.7671H174.347C174.13 44.0406 173.092 44.4215 172.655 44.2042C172.438 44.2042 172.272 44.2579 172.108 44.3141C172.108 44.3678 171.617 44.7512 171.617 44.4777L171.615 44.4753ZM168.939 47.2055H169.212C169.102 47.2592 168.995 47.2592 168.939 47.2055ZM169.105 30.5456C169.051 30.763 168.995 30.929 168.995 31.1464C169.105 31.1464 169.158 30.6555 169.105 30.5456ZM169.542 28.7995C169.378 28.7458 169.378 28.8532 169.432 29.1829C169.215 29.4564 169.215 30.1109 169.158 30.4382C169.268 30.4382 169.595 28.9631 169.542 28.7995ZM169.158 33.9865L170.851 33.4957C170.687 33.4419 169.266 33.8229 169.158 33.9865ZM169.376 47.0419C169.429 47.0956 169.376 47.1518 169.212 47.2055C169.266 47.1518 169.322 47.0419 169.376 47.0419ZM169.542 46.8221C169.488 46.8758 169.432 46.932 169.378 47.0394C169.268 46.9296 169.324 46.8221 169.542 46.8221ZM169.432 49.6085C169.542 49.6085 170.523 49.1714 170.523 49.1177C170.36 49.1714 170.196 49.2276 170.033 49.335C169.486 49.2813 169.322 49.3887 169.432 49.6085ZM170.577 34.0964C170.577 34.2063 170.577 34.26 170.687 34.26C170.25 34.3138 169.649 34.3699 169.486 34.4236C171.505 35.1343 174.782 33.1122 177.568 32.6214C177.404 32.6214 177.24 32.6751 177.077 32.6751C177.077 32.6214 177.514 32.4016 177.568 32.6214C178.058 32.5115 178.552 32.4578 179.042 32.5115C179.096 32.8387 178.442 32.6214 178.496 32.8387L179.807 32.6751C179.48 32.7288 179.206 32.8387 179.042 32.8925C179.096 33.166 179.917 32.509 179.533 33.0024C180.024 32.9486 181.225 33.0024 181.553 32.6751C181.443 32.5652 181.225 32.5115 180.952 32.5115L181.335 32.4578C181.225 32.238 181.172 31.8033 181.282 31.6934C180.571 31.9669 179.152 31.857 178.442 32.0206C175.766 32.6214 173.199 33.2759 170.577 34.0964ZM174.892 34.0427C174.838 33.7692 169.703 35.0268 169.486 35.3541C170.96 35.5714 173.417 34.3162 174.892 34.0427ZM169.976 46.8221H169.539C169.757 46.6048 169.923 46.6048 169.976 46.8221ZM169.705 28.1988C169.595 28.145 169.542 28.2525 169.595 28.4723C169.705 28.526 169.759 28.4723 169.705 28.1988ZM178.879 30.6018C179.48 30.6018 179.97 30.6555 180.3 30.8753C176.696 30.7117 173.309 32.5677 169.815 32.9511C170.963 32.133 173.365 31.8595 174.84 31.5322C175.605 31.3686 177.297 30.7678 178.664 30.658C178.664 30.2208 176.425 30.658 176.208 30.658C175.334 30.7678 174.406 30.8216 173.532 31.0414C173.094 31.1513 171.839 31.752 171.402 31.5322C172.003 31.205 176.535 30.2208 178.5 30.2208C179.047 30.2208 179.375 30.3307 179.375 30.4943C179.211 30.5481 179.047 30.6042 178.884 30.6042L178.879 30.6018ZM169.813 49.0078C169.813 49.0615 170.687 48.8442 170.577 48.6244C170.36 48.788 170.086 48.8979 169.813 49.0078ZM170.25 25.3025C170.14 25.3025 170.033 26.2866 169.976 26.3403C170.194 26.3403 170.25 25.4124 170.25 25.3025ZM171.507 44.529C171.617 44.5827 170.086 45.1835 170.086 45.0198C170.14 45.0198 171.234 44.3654 171.507 44.529ZM170.687 46.5486L170.25 46.6585C170.25 46.5486 170.633 46.4411 170.687 46.5486ZM171.234 46.004C171.017 46.0577 170.797 46.1676 170.579 46.2214C170.689 46.0577 170.853 46.004 171.234 46.004ZM170.633 43.2738H170.907C170.797 43.3275 170.689 43.3837 170.633 43.2738ZM170.907 34.2063C170.797 34.26 170.743 34.26 170.689 34.26C170.799 34.2063 170.853 34.2063 170.907 34.2063ZM170.907 43.2738L171.017 43.1639C171.07 43.2176 171.017 43.2738 170.907 43.2738ZM171.014 43.1639C170.851 43.054 170.96 42.9465 171.341 42.9465C171.178 43.0002 171.014 43.1101 171.014 43.1639ZM171.234 48.8442C171.288 48.954 171.671 48.7904 171.617 48.6805L171.234 48.8442ZM171.671 42.9441H171.344C171.507 42.8904 171.617 42.8342 171.671 42.9441ZM172.379 45.5669C172.106 45.7305 171.778 45.8404 171.395 45.8941C171.395 45.8941 172.323 45.457 172.379 45.5669ZM173.964 45.8941C173.473 46.004 172.489 46.4411 171.561 46.8221C172.872 46.4387 173.964 46.1115 173.964 45.8941ZM171.615 16.3449C172.325 16.3449 172.162 15.6342 172.052 15.0335C171.669 15.4169 171.725 15.854 171.615 16.3449ZM177.514 18.0397C176.423 18.3132 175.602 18.5306 175.602 18.4768C175.876 18.3132 175.985 18.1496 176.313 17.986C175.111 17.986 173.8 18.6966 172.599 19.0239C172.816 19.0239 173.036 19.0239 173.253 19.0776C173.253 19.2949 171.832 19.6246 171.725 19.6783C171.942 20.1155 174.838 18.9677 177.514 18.0397ZM172.379 42.8903L171.996 42.9441C171.996 42.9441 172.379 42.6706 172.379 42.8903ZM173.637 17.71C173.583 17.4927 171.944 17.8736 172.052 18.1472C172.599 17.9835 173.09 17.8199 173.637 17.71ZM172.162 47.9162C172.215 48.1897 172.489 48.1335 172.816 47.7525C172.762 47.479 172.543 47.5352 172.162 47.9162ZM173.036 17.5464C173.69 17.5464 174.621 17.3266 174.892 16.782C174.892 16.7283 175.001 16.7283 175.109 16.6721C175.055 16.7259 175.055 16.782 174.999 16.8895C175.109 16.8358 175.216 16.7796 175.272 16.7796C175.219 16.7259 175.219 16.6697 175.163 16.6697C176.09 16.4524 177.675 16.1227 178.002 16.0152C179.587 15.5244 181.279 14.8137 183.027 14.7038C182.918 14.6501 182.918 14.5402 183.081 14.4303C182.59 14.2667 181.116 14.9773 181.279 14.7038C181.169 14.7038 181.062 14.7575 180.952 14.7575C180.952 14.7038 181.006 14.6476 181.062 14.5939C178.823 14.3766 176.093 15.6318 173.964 16.3425C171.615 17.1068 172.108 17.544 173.036 17.544V17.5464ZM172.545 47.3691C172.599 47.479 173.529 47.1518 173.583 47.0956C173.529 46.932 172.655 47.313 172.545 47.3691ZM173.8 19.7321L173.253 19.9494C173.307 20.0593 173.8 19.8957 173.8 19.7321ZM173.417 18.1472C173.47 18.3108 174.071 18.0373 174.071 17.9835L173.417 18.1472ZM177.187 43.601C176.095 43.8183 174.784 44.148 173.473 44.4753C174.674 44.0381 175.929 43.7646 177.187 43.601ZM174.237 17.9835L175.602 17.6001C175.602 17.4365 174.183 17.8736 174.237 17.9835ZM174.347 42.2896C174.564 42.2896 174.73 42.2359 174.948 42.1797C174.948 42.2896 174.401 42.3971 174.347 42.2896ZM174.838 16.782C174.674 16.782 174.564 16.8358 174.511 16.8358C174.621 16.782 174.728 16.782 174.838 16.782ZM175.111 33.1684C174.948 33.2221 174.784 33.2221 174.674 33.2783C174.674 33.2246 175.058 33.0048 175.111 33.1684ZM174.892 32.5677C174.945 32.7313 175.492 32.5139 175.439 32.4578C175.275 32.4578 175.111 32.5115 174.892 32.5677ZM175.385 19.2949C175.275 19.3487 175.111 19.4048 175.001 19.4048C175.001 19.5147 175.385 19.4048 175.385 19.2949ZM176.366 33.5494C175.876 33.4957 175.439 33.6593 175.055 33.9328C175.272 33.9865 176.203 33.7154 176.366 33.5494ZM175.221 16.4011C175.439 16.0738 175.605 16.0177 175.822 16.2374C175.548 16.5647 175.331 16.6209 175.221 16.4011ZM175.548 42.0698C175.985 41.9599 176.423 41.9062 176.86 41.9599C176.806 41.9599 175.548 42.2334 175.548 42.0698ZM176.093 16.1276C176.476 16.0177 178.823 15.3632 179.97 14.9798C179.97 15.0335 179.917 15.0335 179.917 15.1434C178.605 15.5805 176.149 16.2912 176.093 16.1276ZM176.366 17.9835C176.476 18.0934 176.913 17.9835 177.131 17.9298C177.021 17.9298 177.077 17.7662 176.366 17.9835ZM176.53 17.1654C176.694 17.1117 176.857 17.1117 177.021 17.0555C176.967 16.8382 176.474 17.1093 176.53 17.1654ZM176.53 46.3312C176.53 46.385 178.496 45.9478 178.442 45.9478C177.787 46.0016 177.131 46.1115 176.53 46.3312ZM176.694 31.5298C176.857 31.476 177.021 31.476 177.184 31.4199C177.184 31.5298 176.694 31.6372 176.694 31.5298ZM177.35 44.6926C177.187 44.6926 177.023 44.7463 176.86 44.7463C177.077 44.8562 177.243 44.8001 177.35 44.6926ZM177.951 18.5843C177.624 18.638 177.35 18.7479 177.023 18.8016C177.077 18.9653 177.951 18.638 177.951 18.5843ZM180.08 43.3275C179.096 43.3812 178.168 43.4911 177.187 43.601C178.879 43.2738 180.08 43.1101 180.08 43.3275ZM178.168 33.1147C178.115 32.8412 177.568 33.1147 177.404 33.2246C177.621 33.3882 177.895 33.3345 178.168 33.1147ZM177.678 31.31L178.442 31.1464C178.496 31.31 177.678 31.4199 177.678 31.31ZM178.989 32.2941C178.715 32.5115 178.388 32.404 178.115 32.4578C178.662 32.0206 178.933 31.9669 178.989 32.2941ZM178.388 15.1996C178.662 14.9822 178.771 14.926 178.825 15.0897C178.608 15.3632 178.442 15.3632 178.388 15.1996ZM180.464 34.3699C180.464 34.2063 178.608 34.6972 178.442 34.7533C178.715 35.1367 180.134 34.4798 180.464 34.3699ZM178.605 43.7084C179.042 43.6547 179.48 43.5986 179.917 43.5986C179.533 43.6523 179.042 43.7084 178.605 43.7084ZM178.662 44.5827C178.771 44.529 178.935 44.529 179.045 44.4728C178.881 44.5827 178.718 44.6364 178.662 44.5827ZM178.769 46.5486C178.933 46.5486 179.152 46.4949 179.37 46.4949C179.206 46.2775 178.769 46.3312 178.769 46.5486ZM179.426 33.0585C179.372 32.8949 178.825 33.0048 178.825 33.1684L179.426 33.0585ZM178.879 34.1501C179.152 34.1501 179.48 34.0964 179.753 33.9328L178.879 34.1501ZM179.37 31.476C179.423 31.3124 179.697 31.3124 180.08 31.476C179.97 31.4223 179.697 31.476 179.37 31.476ZM179.37 45.8404L179.97 45.7305C179.807 45.6768 179.533 45.6768 179.37 45.8404ZM179.643 32.3479C179.753 32.2941 179.86 32.2941 179.97 32.238C180.024 32.4016 179.643 32.4578 179.643 32.3479ZM179.699 15.8003C180.901 15.4169 182.102 15.0359 183.413 14.9822C182.429 15.4731 180.683 15.583 179.699 15.8003ZM179.753 33.9328L181.445 33.7692C181.499 33.6055 180.517 33.7692 179.753 33.9328ZM179.807 32.6776C180.19 32.5677 180.571 32.5139 180.954 32.5139L179.807 32.6776ZM180.954 33.1147C180.954 32.8973 179.917 33.1684 179.863 33.1684C179.917 33.2783 180.954 33.1147 180.954 33.1147ZM179.917 15.1434C180.08 15.0335 180.244 14.9798 180.354 14.926C180.354 14.9798 180.407 14.9798 180.407 15.0359C180.134 15.2533 179.97 15.2533 179.917 15.1458V15.1434ZM180.354 14.8699C180.244 14.9236 180.136 14.9798 179.97 14.9798C180.134 14.8699 180.298 14.8162 180.354 14.8699ZM180.3 19.4048C179.973 19.5147 180.354 19.3511 180.136 19.6222C180.3 19.6222 180.354 19.5123 180.3 19.4048ZM180.134 42.5631C180.407 42.5631 180.681 42.6168 180.954 42.6168C180.735 42.7805 180.464 42.7267 180.134 42.5631ZM180.354 14.8699C180.517 14.8162 180.627 14.8162 180.627 14.8162C180.627 14.8162 180.517 14.8699 180.354 14.8699ZM180.627 14.8162C180.737 14.7624 180.844 14.7624 180.954 14.7624C180.844 14.8723 180.735 14.8723 180.627 14.8162ZM181.609 16.782C181.499 16.782 181.335 16.8358 181.225 16.8919C181.335 16.8382 181.499 16.782 181.609 16.782ZM184.558 17.0018C184.341 16.6746 181.501 17.7125 181.555 17.8199C182.319 17.71 184.068 17.4927 184.558 17.0018ZM181.992 16.6184C181.882 16.6721 181.719 16.7283 181.609 16.782L181.992 16.6184ZM183.193 16.2374L181.992 16.6209C182.483 16.4572 182.92 16.2936 183.193 16.2374ZM182.373 15.5268C182.263 15.5805 182.156 15.5805 182.046 15.6367C181.992 15.4731 182.373 15.4193 182.373 15.5268ZM182.593 18.2571C182.593 18.1472 182.209 18.2033 182.266 18.3669C182.375 18.3132 182.483 18.3132 182.593 18.2571ZM183.521 17.6026C183.467 17.439 182.483 17.7662 182.483 17.8761C182.81 17.7662 183.193 17.7125 183.521 17.6026ZM182.703 16.9456C183.086 16.782 183.467 16.6184 183.85 16.6184C183.523 16.782 183.14 16.8919 182.703 16.9456ZM183.958 17.8761C183.794 17.7662 182.974 17.986 182.81 18.1496C183.247 18.1496 183.574 17.986 183.958 17.8761ZM184.612 15.0897C184.995 15.2533 184.395 15.2533 184.829 15.307C184.666 15.5805 184.446 15.5805 184.229 15.3607C184.339 15.307 184.556 15.1971 184.612 15.0872V15.0897Z" fill="white"/>
<path d="M206.622 20.9873C205.257 22.4623 202.744 22.2425 200.888 22.2425C199.14 22.2962 197.394 22.4061 196.628 24.2645C195.81 26.5039 196.845 27.7054 198.483 28.9607C201.269 31.1463 204.109 34.7508 204.817 38.3554C205.691 42.7242 203.506 46.1651 199.628 48.0236C198.264 48.678 196.952 49.0615 195.424 49.2251C194.276 49.335 193.075 49.3887 191.983 49.2788C191.874 49.2251 190.181 48.7318 189.744 48.4607C190.399 49.1713 191.656 49.7721 192.584 49.4449C192.638 49.5548 192.53 49.4986 192.53 49.6085C194.005 49.2812 195.587 49.4986 197.062 49.2251C199.028 48.8417 200.612 47.8599 202.087 46.5485C202.688 47.1493 197.499 49.6622 196.899 49.8258C195.971 50.0993 190.836 50.9174 190.782 50.4803C190.728 50.9712 189.144 50.0432 189.034 49.9333C188.433 49.3862 187.886 48.1847 188.216 47.4204C187.942 48.8954 189.254 50.4779 190.782 50.4779C189.527 49.9308 188.543 49.4937 188.433 47.9112C188.379 47.2568 189.034 46.109 187.942 46.1627L188.433 46.7634C187.996 46.9271 188.323 46.5998 187.832 46.6536C187.832 46.7635 187.832 46.8172 187.779 46.9271C187.669 46.8172 187.068 46.5437 187.068 46.5437C187.288 47.0907 186.795 46.7073 186.685 46.9808C187.068 47.1444 187.395 47.2543 187.776 46.9808C187.666 47.4179 187.449 47.8551 187.449 48.4021C187.503 48.7855 187.996 49.3862 188.487 49.9308C188.323 49.7135 188.213 49.5474 188.213 49.44C188.487 49.7135 188.76 49.987 189.031 50.3142C188.921 50.2605 188.758 50.2043 188.648 50.0407L189.466 50.8613C188.702 50.6439 188.155 50.2068 187.718 49.5499C187.5 49.2226 187.334 47.8575 187.227 47.8013C187.063 50.0944 188.919 51.2422 191.051 51.2422C190.777 51.4596 190.396 51.5695 189.959 51.5695C188.375 51.5695 186.082 50.2043 185.264 49.6036C184.116 48.7293 183.078 47.1469 183.462 45.6157C183.625 44.905 183.953 44.5778 184.5 44.5778C184.827 44.5778 185.154 44.6877 185.537 44.7951C186.028 44.9587 187.776 46.3239 187.776 46.3239C187.83 46.1603 187.393 45.9966 187.286 45.8867C187.449 45.7231 187.996 46.1041 188.05 45.8867C188.104 45.6132 187.503 45.5033 187.886 45.3397C187.832 45.6132 188.541 45.7768 188.76 45.667C188.433 45.1199 187.122 45.1199 187.395 44.5753C187.942 44.6291 188.216 45.0662 188.816 45.1224C188.433 44.6315 187.669 44.6315 187.395 44.1382C188.323 44.1382 188.76 45.0125 189.471 45.3934C189.417 45.1199 189.525 44.6291 189.417 44.5192C189.09 44.4093 189.09 44.5192 189.363 44.7365C188.543 44.463 187.835 44.1895 187.234 43.6449C187.071 44.1919 186.907 43.9184 186.414 43.5912C186.468 43.8647 186.577 44.082 186.741 44.2457C185.049 43.5912 187.452 45.1199 187.395 45.1737C187.178 45.0638 186.905 45.01 186.631 45.01C186.905 45.01 187.068 45.1199 187.122 45.3373C186.521 45.3373 185.811 44.6266 185.21 44.463C185.21 44.2457 185.427 44.2457 185.811 44.463C185.701 44.1358 184.99 44.0259 184.773 43.916C185.046 43.8061 185.21 43.7524 185.264 43.7524C184.88 43.6425 184.553 43.535 184.553 43.2053C184.717 43.2591 186.028 43.8598 186.138 43.6425C186.084 43.6425 184.119 42.9318 184.119 42.9318C184.336 42.8781 184.829 42.9318 185.046 42.6583C184.556 42.3311 183.955 43.1492 183.791 43.0417C184.228 42.1137 184.993 41.7865 185.811 41.7865C187.122 41.7865 189.468 42.6607 189.798 44.0259C189.962 44.6804 189.361 45.4472 190.125 45.391C190.072 45.5009 189.908 45.5546 189.742 45.5546C190.015 45.7182 190.67 45.8281 191.434 45.8281C192.525 45.8281 193.783 45.6645 194.164 45.391C194.054 45.3373 193.947 45.2274 193.89 45.1737C197.331 44.3531 200.608 42.2236 201.755 38.729C201.865 38.7827 202.192 38.3456 201.972 38.2919C201.972 38.5116 201.919 38.6191 201.755 38.6191C201.919 37.8547 202.246 36.326 201.645 35.6691C201.645 37.7986 201.699 39.4372 200.117 41.132C200.664 39.4934 201.538 38.5654 201.318 36.7069C201.045 34.6312 199.843 32.719 198.588 31.0804C197.004 29.0608 194.437 27.5296 193.019 25.3464C193.236 25.8372 193.509 26.2206 193.566 26.3305C194.713 27.6957 196.242 28.5162 197.389 29.8813C199.409 32.2306 201.758 35.5079 200.94 38.729C200.012 42.4434 195.807 44.8464 192.147 45.3934C192.201 45.3934 192.257 45.3934 192.311 45.4472H191.983C192.019 45.4114 192.056 45.3934 192.093 45.3934C191.439 45.4472 190.838 45.5033 190.238 45.4472C191.002 44.7927 193.624 44.8464 194.716 44.4093C196.3 43.7548 198.046 42.5533 198.703 40.8585C200.014 37.4176 195.426 33.9767 192.97 32.3918C185.598 27.7494 188.492 15.8418 196.628 13.6586C197.665 13.385 198.813 13.2214 200.014 13.2214C202.58 13.2214 205.203 14.042 206.404 16.3888C207.059 17.644 207.715 19.8297 206.624 20.9775L206.622 20.9873ZM184.065 46.8221C184.282 46.4948 184.229 46.0577 184.612 45.7842C184.995 45.5107 185.376 45.9478 185.813 45.6206C185.322 45.5107 185.049 45.6206 184.829 45.1297L186.25 45.4569C186.36 45.1834 184.829 44.8025 184.666 44.8562C184.338 44.9661 184.011 45.6767 183.955 46.2213C183.955 46.1676 183.955 46.0577 183.901 45.9478C183.684 45.8941 183.628 46.0577 183.738 46.4948C183.848 46.4948 183.901 46.4948 183.955 46.4411C183.955 46.6047 183.955 46.7683 184.065 46.8245V46.8221ZM184.011 45.6767C184.065 45.3495 184.228 45.0222 184.448 44.8025C183.957 44.8562 183.411 45.6206 184.011 45.6767ZM184.885 47.8062C184.885 47.0956 184.995 46.6584 185.376 46.0577C184.556 46.4411 185.322 46.1114 185.159 45.9478C184.612 46.3849 184.612 46.4387 184.995 45.8379C184.341 46.1114 184.722 46.3288 184.668 46.6023C184.285 46.4924 184.231 47.6402 184.885 47.8038V47.8062ZM185.54 42.3994C185.322 42.2358 185.156 42.2358 185.049 42.4532C185.159 42.4532 185.322 42.3994 185.54 42.3994ZM186.961 46.7146C186.687 46.4411 186.414 46.3312 186.14 46.3312C185.213 46.3312 184.666 47.7525 185.486 48.0797C185.54 47.6426 185.486 46.4411 186.197 46.551C186.033 47.3715 185.813 47.7525 185.979 48.6268L186.089 47.9723C186.089 48.026 186.143 48.1359 186.199 48.2458C186.472 48.2995 186.526 48.0284 186.253 47.4814C186.199 47.4814 186.143 47.4814 186.089 47.5351V47.3178C186.306 46.9344 186.907 46.8807 186.963 46.7171L186.961 46.7146ZM185.813 43.9282L185.376 43.7646C185.486 43.8745 185.322 44.2017 185.813 43.9282ZM185.65 48.0797C185.759 47.6426 185.813 47.2055 185.923 46.8245C185.706 46.9881 185.54 47.8624 185.65 48.0797ZM186.197 42.6168C186.033 42.5069 185.869 42.4532 185.706 42.4532C185.816 42.6705 185.923 42.7267 186.197 42.6168ZM186.087 47.5327V47.9698C185.977 47.6963 185.977 47.5864 186.087 47.5327ZM186.14 44.7463C186.36 44.8 186.577 44.9099 186.741 44.9636C186.851 44.6901 186.304 44.6901 186.14 44.7463ZM186.687 42.7267C186.851 42.5631 186.524 42.5069 186.414 42.5069C186.468 42.6168 186.577 42.7267 186.687 42.7267ZM186.47 45.6206C186.58 45.7304 186.687 45.8379 186.853 45.9478C186.853 45.6743 186.743 45.5644 186.47 45.6206ZM187.615 43.4911C187.288 43.2737 186.961 43.0539 186.577 42.8366C186.304 43.1638 187.452 43.5472 187.615 43.4911ZM187.124 44.5289C187.015 44.4752 186.907 44.4752 186.797 44.4191C186.961 44.2554 187.015 44.4728 187.124 44.5289ZM187.178 42.8903C187.124 43.0539 188.599 44.2017 188.543 43.7646C188.707 43.8745 188.926 43.9282 189.09 44.0381C189.144 43.9844 187.505 42.9465 187.178 42.8903ZM188.216 43.1077L187.232 42.6168C187.178 42.8341 188.106 43.3274 188.216 43.1077ZM187.779 46.932C187.815 46.932 187.832 46.9499 187.832 46.9857C187.832 46.9857 187.779 46.9857 187.779 46.932ZM189.581 48.2971C189.254 47.3129 188.98 45.8941 188.27 45.9478C188.27 46.2213 188.707 46.4387 188.76 46.7122C188.924 47.3666 188.87 47.9137 189.251 48.5682C190.072 49.8795 191.436 50.0969 192.855 50.0432C192.254 49.9894 191.327 49.7159 190.67 49.4961H190.78C190.616 49.3862 190.506 49.3862 190.396 49.3325C190.396 49.3862 190.45 49.3862 190.506 49.4424C190.069 49.2788 189.796 49.1152 189.959 49.059C189.849 48.8954 189.742 48.6756 189.576 48.2946L189.581 48.2971ZM189.146 51.1372C189.2 50.9199 189.036 50.8637 188.599 50.9736C188.545 51.1909 188.709 51.2471 189.146 51.1372ZM188.926 48.5169C188.873 48.1896 188.763 47.9161 188.709 47.6426C188.599 47.8062 188.763 48.2434 188.926 48.5169ZM189.146 46.3312C189.2 46.2213 188.926 45.5668 188.819 45.8403C188.709 46.0577 188.819 46.2775 189.146 46.3312ZM188.98 45.2933C188.98 45.4569 189.09 45.6206 189.307 45.6767C189.361 45.5131 189.09 45.3495 188.98 45.2933ZM191.493 50.263C190.675 50.2092 189.854 49.9894 189.254 49.3887C189.417 49.8795 190.838 50.4803 191.493 50.263ZM197.829 29.0168C198.102 29.2903 198.376 29.6176 198.649 30.001C198.539 29.8911 198.432 29.8374 198.266 29.7836C197.992 29.9473 198.156 30.2208 198.757 30.4943C198.867 30.4406 198.867 30.3844 198.867 30.2769C200.615 32.5163 202.417 35.1391 202.307 37.9231C202.197 40.5459 200.288 41.5813 198.867 43.386C199.084 43.3323 199.414 42.8952 199.631 43.1125C200.559 42.5118 201.323 41.911 201.596 41.8011C202.143 42.6754 197.282 45.0784 196.571 45.3519C196.625 45.5693 196.845 45.5155 197.226 45.2982C197.226 45.3519 197.172 45.4081 197.116 45.4618C198.207 45.0247 199.465 44.5338 199.628 44.4239C201.267 43.386 201.814 42.4043 202.685 40.9293C203.286 41.9135 200.61 43.9868 200.065 44.3702C199.191 45.0247 198.21 45.4618 197.226 45.7353C197.008 45.7891 195.206 46.446 195.697 46.0626H195.37C195.697 46.0088 196.298 45.7891 196.955 45.5155C196.19 45.7329 194.279 45.6254 194.552 46.1163C193.568 46.0626 194.279 46.17 194.279 45.9527C194.169 45.9527 189.473 46.1163 189.583 45.8428C189.092 46.9906 194.388 46.7708 194.935 46.7171C196.41 46.5534 197.612 46.2799 198.759 45.7891C197.941 46.1163 197.011 46.2799 196.247 46.3898C196.193 46.2799 198.759 45.4618 198.759 45.5693C199.143 45.242 199.25 45.0784 199.47 44.9685C199.797 45.2958 199.853 45.0222 200.507 44.6413C200.234 44.9685 199.907 45.1883 199.523 45.4056C200.671 44.8049 201.709 44.0405 202.8 43.0564C202.146 44.148 200.615 45.2958 199.577 45.8965C199.03 46.2237 197.555 46.4435 197.284 46.8807C197.338 46.9906 199.25 46.3336 199.304 46.3336C198.703 46.7171 197.992 46.8245 197.284 46.9881C197.338 47.098 197.394 47.2055 197.448 47.2055C197.558 47.2592 197.612 47.2055 197.721 47.2055H197.448C197.612 47.2055 197.721 47.1517 197.885 47.0956L198.159 46.932C198.159 46.9857 198.159 47.0418 198.105 47.0418C201.328 46.4411 204.111 43.5472 204.439 40.2699C204.275 40.3798 204.329 40.4873 204.111 40.5972C204.111 40.3237 204.221 40.0502 204.221 39.7766C204.185 39.7766 204.149 39.7946 204.111 39.8304C204.165 39.066 204.385 37.4274 203.784 36.9365C203.894 37.7009 204.221 38.685 203.894 39.3957C203.894 36.6654 202.693 34.1525 201.001 32.0768C200.673 31.6396 198.051 28.7458 197.834 29.0193L197.829 29.0168ZM203.452 43.5448C202.305 45.1834 200.612 46.3312 198.81 47.0394C199.301 47.203 200.175 46.5485 200.559 46.3849C199.631 47.4765 197.719 47.1493 196.791 48.0773C196.628 47.5864 193.788 47.9137 193.187 47.9137C191.659 47.8599 190.621 47.6963 189.583 46.5485C189.529 46.8221 189.583 47.0394 189.801 47.203C190.074 47.6939 190.511 48.0773 191.112 48.3508C190.838 48.2971 190.621 48.2409 190.511 48.1872C190.401 48.5144 191.495 48.678 192.53 48.7879C193.021 48.8417 193.514 48.8978 194.059 48.8978C193.949 48.8978 193.895 48.8441 193.785 48.8441C194.113 48.8441 194.332 48.8978 194.386 48.8978C196.899 48.7879 199.628 47.9698 200.883 47.0956C200.774 46.9857 200.72 46.9857 200.556 47.0956C201.047 46.7122 202.522 45.5668 202.685 45.4032C203.506 44.5289 204.324 43.4911 204.597 42.2896C204.544 42.2358 203.069 44.9661 202.742 44.6926C203.562 43.7084 204.38 42.6168 204.544 41.2517C204.16 41.5252 203.779 43.1076 203.452 43.5448ZM189.801 47.2055C190.347 47.6963 190.838 47.9698 191.385 48.1896C190.731 47.9723 190.184 47.6426 189.801 47.2055ZM190.238 46.7146C190.347 46.551 190.238 46.4973 189.964 46.4973C189.854 46.6072 189.964 46.6609 190.238 46.7146ZM191.002 47.2055C191.112 46.9881 190.892 46.8782 190.401 46.932C190.291 47.1517 190.511 47.2592 191.002 47.2055ZM190.675 49.4986C190.621 49.4986 190.565 49.4986 190.511 49.4449C190.565 49.4449 190.621 49.4986 190.675 49.4986ZM191.112 47.2055C191.329 47.6426 192.04 47.8062 193.024 47.8062C194.225 47.8062 195.863 47.5327 197.175 47.2592C195.319 47.4228 191.495 47.2055 191.112 47.2055ZM191.112 48.3508C191.822 48.5144 193.077 48.7342 193.788 48.8417C193.461 48.8417 192.967 48.7879 192.533 48.7879C191.986 48.678 191.495 48.5706 191.112 48.3508ZM193.568 48.4607C192.748 48.4607 192.04 48.407 191.383 48.1872C192.093 48.4045 192.911 48.4607 193.732 48.4607C195.153 48.4607 196.571 48.2434 197.499 48.1335C196.789 48.7342 194.55 48.5169 193.568 48.4607ZM191.656 23.4464C191.056 24.3207 192.64 25.9593 194.059 27.2146C192.967 26.1767 192.04 24.8653 191.656 23.4464ZM194.769 49.1176C193.678 49.1176 192.584 49.0639 191.546 49.0639C192.311 49.2275 193.949 49.2812 194.769 49.1176ZM192.257 23.9373C192.147 23.5002 192.04 23.063 191.983 22.5722C191.71 22.5184 191.93 23.1729 192.257 23.9373ZM193.732 45.347C193.678 45.4569 192.584 45.4569 192.53 45.4569C192.694 45.2933 193.514 45.1834 193.732 45.347ZM193.788 18.3107C193.951 17.9835 196.027 15.6342 196.518 15.2532C193.788 16.782 192.04 20.1692 192.914 23.2828C192.914 22.2987 193.514 18.804 193.788 18.3132V18.3107ZM194.225 28.1987C193.898 27.8715 192.97 26.8873 192.86 26.7237C192.696 26.8336 193.788 27.7616 193.898 27.8715L194.225 28.1987ZM193.514 24.6479C193.351 24.3207 193.241 23.9935 193.077 23.6638C192.86 23.7737 193.514 24.6479 193.514 24.6479ZM194.769 25.4123C193.951 23.9373 194.606 22.6821 194.059 21.2608C192.694 23.3903 195.37 26.8873 196.899 28.0327C196.899 28.0327 194.933 25.6834 194.769 25.4099V25.4123ZM194.388 17.8199C194.061 18.1471 193.898 18.4744 193.842 18.9115C193.951 18.9652 194.332 17.8736 194.388 17.8199ZM194.005 50.0456C194.115 49.9919 194.222 49.9919 194.332 49.9919C194.169 49.882 194.059 49.882 194.005 50.0456ZM194.933 18.6404C195.26 18.0934 195.751 17.7124 196.134 17.1654C195.37 17.8199 193.622 19.8956 194.113 21.1533C194.166 20.9897 194.166 20.7699 194.166 20.6063C194.657 20.3328 194.657 19.1313 194.931 18.6404H194.933ZM194.115 28.6359C193.951 28.8532 194.115 28.9631 194.552 29.0193C194.716 28.8556 194.552 28.692 194.115 28.6359ZM194.279 18.6941C194.442 18.804 194.552 18.257 194.496 18.2033C194.442 18.3669 194.332 18.5305 194.279 18.6941ZM194.496 23.6638C194.442 23.5002 194.386 23.5002 194.386 23.8274C194.386 23.7737 194.44 23.7175 194.496 23.6638ZM195.48 27.4319L194.388 26.2841C194.716 26.7213 195.099 27.2121 195.48 27.4319ZM194.716 24.8116C194.716 24.6479 194.662 24.2645 194.552 23.9935C194.225 23.9935 194.662 24.6479 194.716 24.8116ZM194.552 22.9531C194.552 23.1168 194.552 23.2804 194.498 23.444C194.662 23.2804 194.662 23.1168 194.552 22.9531C194.716 22.7358 194.662 22.5697 194.498 22.4623C194.552 22.6259 194.552 22.7895 194.552 22.9531ZM194.606 17.6025C194.823 17.4926 194.879 17.3852 194.823 17.1654C194.769 17.2191 194.44 17.6563 194.606 17.6025ZM198.156 33.2783C197.065 31.7495 195.644 30.3282 194.606 29.4002C195.971 30.8215 197.446 32.5676 198.264 34.3699C197.936 33.7691 197.553 33.2221 197.28 33.2221C197.934 34.3137 198.481 35.4078 199.028 36.6093V36.4456C199.191 36.8291 199.301 37.21 199.465 37.5934C199.575 37.4298 199.628 37.2662 199.628 37.1026C199.792 38.3578 199.682 39.6692 198.918 41.0343H199.081C198.754 41.5252 198.535 41.9623 198.427 42.0722C199.191 41.4715 199.792 40.4336 200.012 39.5056L199.685 39.9964C199.902 38.9585 199.958 37.4298 199.848 37.1026L199.631 36.282C199.521 35.6813 199.194 34.9706 198.757 34.2063C198.156 32.8949 197.502 31.6934 197.282 31.9131C197.555 32.3503 197.883 32.7874 198.156 33.2783ZM194.66 45.347C194.933 45.4008 195.097 45.2933 195.26 45.0198C194.823 44.9661 194.606 45.0198 194.66 45.347ZM194.826 20.3865C194.935 20.4964 195.59 18.6941 195.59 18.6941C195.373 18.5842 194.879 20.2229 194.826 20.3865ZM195.097 22.7895H194.987C194.987 23.1168 194.933 23.6101 194.987 24.1546C194.987 24.0447 194.987 23.9373 195.04 23.8274C194.987 23.5002 195.04 23.1729 195.094 22.7895H195.097ZM196.027 19.2949C195.753 19.5122 195.59 19.7858 195.644 20.1154C195.26 20.4988 194.879 22.0813 194.989 22.5184C195.263 21.4268 195.48 20.4427 196.027 19.2949ZM195.097 24.4843C195.043 24.4306 194.987 24.4306 194.987 24.3744C195.04 25.0289 195.206 25.6297 195.641 25.9032L195.478 25.6297C195.314 25.2463 195.15 24.8653 195.094 24.4819L195.097 24.4843ZM195.043 28.3623C195.097 28.6359 196.354 29.7275 196.899 30.2745C196.352 29.5101 195.861 28.9094 195.043 28.3623ZM195.917 17.8199C195.644 17.9835 194.933 18.9115 195.099 19.2949C195.316 18.4768 195.753 18.2033 196.19 17.5464C196.081 17.4365 195.973 17.5464 195.917 17.8199ZM195.153 26.8336L195.644 27.3245C195.697 27.2146 195.206 26.7774 195.153 26.8336ZM195.206 28.2525L195.807 28.7433C196.024 28.5235 195.861 28.4161 195.37 28.3599C195.316 28.3062 195.26 28.25 195.206 28.25V28.2525ZM203.945 17.71C203.782 17.4365 203.562 17.3266 203.235 17.3266C203.235 17.2167 201.159 16.9993 200.669 17.1092C199.194 17.4365 198.046 18.257 197.065 19.3486C195.81 20.7699 194.935 23.3903 195.48 25.3561C195.48 24.919 195.644 23.9349 195.807 23.0069C195.697 24.4282 195.697 26.0106 195.807 26.3379C196.19 25.9007 195.807 23.5514 195.971 22.897C196.518 20.7675 198.43 18.6355 200.612 18.1447C201.103 18.0348 204.163 18.0909 203.943 17.7075L203.945 17.71ZM195.534 16.6721C195.697 16.5622 195.751 16.4548 195.644 16.2887C195.26 16.506 195.206 16.6159 195.534 16.6721ZM195.426 21.7541C196.244 19.5684 198.32 17.6587 200.178 16.8382C199.414 16.1837 196.737 18.9139 196.354 19.4048C195.863 20.1154 195.59 20.9335 195.426 21.7541ZM195.48 45.1297C195.59 45.5668 196.735 45.0198 198.046 44.2017C196.899 44.419 196.571 44.8562 195.48 45.1297ZM196.298 20.7699L195.807 23.0093C195.917 21.8078 196.024 20.7162 196.298 20.7699ZM196.081 46.3849C195.917 46.4948 195.807 46.4948 195.807 46.3312C196.024 46.2213 196.134 46.2213 196.081 46.3849ZM196.027 15.9077C196.518 15.6342 197.665 15.2532 198.593 14.9236L198.43 15.0872C198.647 15.1409 198.92 14.9773 198.976 14.8137H198.867C199.357 14.65 199.741 14.5402 199.794 14.5402C198.539 14.2129 197.008 15.0872 196.027 15.9053V15.9077ZM196.955 46.8782C196.681 46.8782 196.354 46.932 196.081 46.9881C196.134 47.1517 196.899 46.9881 196.955 46.8782ZM196.19 27.869C196.628 28.2525 197.118 28.6334 197.612 29.0168C197.775 28.7995 196.357 27.9789 196.19 27.869ZM197.228 20.7162C197.011 20.7162 196.574 21.3707 196.628 21.5343C196.791 21.2608 197.011 20.9873 197.228 20.7162ZM197.065 16.2911C197.175 16.4547 197.282 16.401 197.502 16.0176C197.392 15.854 197.228 15.9077 197.065 16.2911ZM197.829 47.4228C197.775 47.2055 197.612 47.2055 197.282 47.4228C197.336 47.6963 197.499 47.6402 197.829 47.4228ZM198.156 15.1434C197.883 15.1434 197.609 15.2532 197.446 15.4706C197.609 15.5243 198.1 15.2532 198.156 15.1434ZM197.499 45.1834C198.317 44.5289 199.355 44.1993 200.175 43.5985C200.065 44.1993 198.1 45.1834 197.499 45.1834ZM198.156 48.0797L197.555 48.1896C197.939 47.8624 198.102 47.8062 198.156 48.0797ZM197.609 15.9639C197.719 15.9102 198.373 15.6904 198.43 15.473C199.084 15.4193 199.958 15.3094 200.559 15.0359C199.848 14.7624 198.1 15.4193 197.609 15.9639ZM198.32 42.2896C198.102 42.5069 197.829 42.673 197.609 42.8903C197.883 42.7804 198.264 42.3994 198.32 42.2896ZM199.848 33.9865C200.503 35.4078 200.666 36.6093 200.832 38.138C201.269 38.1917 200.559 35.2979 200.449 35.0244C199.848 33.332 198.757 31.857 197.663 30.4918C197.609 30.5456 199.738 33.7154 199.848 33.9865ZM199.03 42.3994C199.248 42.3994 198.647 42.7267 198.539 42.7829C198.539 43.0564 198.322 43.22 197.992 43.2737C197.883 43.1101 198.43 42.8366 198.593 42.7267C198.703 42.5631 198.867 42.4532 199.03 42.3994ZM197.992 44.0381C198.21 43.9844 198.156 43.8745 198.266 44.0381C198.376 43.9844 198.43 43.9282 198.483 43.8745C198.32 43.7108 198.43 43.6009 198.757 43.4911C198.647 43.2737 197.992 43.8745 197.992 44.0381ZM199.631 37.1001C199.411 35.7887 198.867 34.4773 198.156 33.2758C198.81 34.26 199.194 35.188 199.631 36.2796C199.631 36.5531 199.685 36.8266 199.631 37.1001ZM198.647 18.3669C198.537 18.5842 198.373 18.6941 198.21 18.7503C198.156 18.6966 198.593 18.4231 198.647 18.3669ZM198.974 36.3358C198.757 35.6813 198.537 35.0244 198.264 34.3699C198.647 35.0805 198.918 35.8986 198.974 36.3358ZM200.669 18.4768C200.341 18.1496 198.703 19.2949 198.483 19.5684C198.81 19.4585 199.138 19.1313 199.411 18.9139C199.794 18.9139 200.339 18.5867 200.666 18.4768H200.669ZM198.593 41.6888L198.81 41.3616C198.701 41.3078 198.483 41.6351 198.593 41.6888ZM198.593 14.926C198.647 14.8723 198.757 14.8161 198.867 14.8161C198.757 14.8698 198.649 14.8698 198.593 14.926ZM199.848 15.4169C199.575 15.3631 198.81 15.6342 198.593 15.8003C199.03 15.6904 199.411 15.5268 199.848 15.4169ZM198.81 18.4206C198.757 18.4206 198.701 18.4206 198.647 18.3669C198.792 18.2578 198.846 18.2757 198.81 18.4206ZM198.867 30.2745C198.813 30.1646 198.703 30.0572 198.649 30.001C198.813 30.1109 198.867 30.1646 198.867 30.2745ZM198.867 30.5456C198.757 30.6555 199.467 31.4736 199.521 31.5297C199.631 31.4198 198.92 30.6017 198.867 30.5456ZM199.631 18.0397C199.631 18.1496 199.14 18.4231 198.867 18.4231C198.976 18.0958 199.25 17.9859 199.631 18.0397ZM198.974 36.3358C198.974 36.3895 199.028 36.3895 199.028 36.4456C199.028 36.3919 198.974 36.3919 198.974 36.3358ZM199.03 33.1684C199.357 33.7154 199.631 34.3161 199.904 34.8607C200.014 34.807 199.631 34.0964 199.03 33.1684ZM199.03 42.3994C199.14 42.2896 199.194 42.1821 199.248 42.016C199.411 42.1797 199.138 42.3994 199.03 42.3994ZM199.084 14.8698C199.411 14.9236 199.685 14.8698 200.012 14.7599C199.958 14.5402 199.248 14.7599 199.084 14.8698ZM199.084 41.0343C199.248 40.7071 199.467 40.3237 199.685 39.9964C199.521 40.5972 199.357 41.0343 199.084 41.0343ZM199.575 43.1638C199.465 43.2175 199.301 43.3274 199.191 43.4373C199.355 43.3274 199.465 43.2737 199.575 43.1638ZM199.467 34.5872C199.577 34.7508 199.685 34.9145 199.741 35.1342C199.631 34.807 199.523 34.5872 199.467 34.5872ZM200.669 37.3199C200.395 39.2321 200.778 38.6313 199.467 41.1442C200.451 40.0526 200.778 38.7412 200.669 37.3199ZM199.575 38.3016C199.628 38.0281 199.628 37.9744 199.465 37.8645L199.575 38.3016ZM199.521 41.7425C199.631 41.469 199.738 41.3591 199.848 41.469C199.794 41.7963 199.685 41.8524 199.521 41.7425ZM199.521 44.9661C199.575 44.9124 199.685 44.8562 199.794 44.7487C199.741 44.9123 199.631 44.9661 199.521 44.9661ZM199.631 46.1139C199.848 46.004 200.014 45.8403 200.232 45.8403C200.232 46.004 199.685 46.2775 199.631 46.1139ZM199.685 17.8199C200.122 17.6563 200.832 17.6563 201.487 17.6025C200.666 17.8199 199.902 18.0397 199.685 17.8199ZM200.285 47.2592L199.738 47.5864C199.685 47.4765 200.229 47.1493 200.285 47.2592ZM199.794 35.2441C199.848 35.4078 200.122 36.4994 200.232 36.4456C200.178 36.282 200.014 35.6813 199.794 35.2441ZM201.106 44.2017C200.942 44.3653 200.778 44.5289 200.559 44.5851C200.669 44.3116 200.012 44.6388 199.794 44.7487C200.178 44.4215 200.559 44.0943 200.996 43.8207C200.778 44.148 200.832 44.2579 201.106 44.2041V44.2017ZM200.122 42.4532C200.068 42.5631 199.958 42.6705 199.848 42.7804C199.738 42.6705 200.065 42.397 200.122 42.4532ZM199.904 34.9706C200.014 35.188 200.122 35.4078 200.178 35.6251C200.288 35.6251 200.068 34.9145 199.904 34.9706ZM200.012 39.3395C200.339 38.7925 200.395 36.8828 200.122 36.6093C200.175 37.5373 200.232 38.4115 200.012 39.3395ZM200.012 37.4835V38.3578C200.066 38.3578 200.066 37.4835 200.012 37.4835ZM200.068 15.3631L200.996 15.2532C200.996 15.0359 200.175 15.307 200.068 15.3631ZM200.669 41.9623C200.505 42.3994 200.341 42.5631 200.178 42.3457C200.341 41.9086 200.505 41.745 200.669 41.9623ZM200.341 16.782L200.778 16.6721C200.669 16.6721 200.341 16.5622 200.341 16.782ZM200.505 47.1517L200.395 47.2616C200.395 47.2079 200.449 47.2079 200.505 47.1517ZM200.449 32.7312C200.339 32.785 201.213 34.4798 201.213 34.5335C201.43 34.4236 200.559 32.8949 200.449 32.7312ZM200.505 41.3054C200.778 41.3591 201.159 40.6509 201.159 40.4311C201.433 40.2675 201.596 39.7766 201.706 39.5031C201.596 39.6668 200.669 41.1418 200.505 41.3054ZM200.559 47.0956L200.505 47.1493C200.505 47.1493 200.505 47.0956 200.559 47.0956ZM200.886 38.3016C200.776 38.3016 200.776 38.6289 200.886 38.6289V38.3016ZM201.706 43.3274C201.653 43.5448 201.323 43.7646 201.159 43.8183C201.159 43.7084 201.543 43.2713 201.706 43.3274ZM202.798 45.5668C202.744 45.5131 201.269 46.8221 201.269 46.8221C201.433 46.9857 202.688 45.7304 202.798 45.5668ZM201.487 17.6025C202.087 17.4926 202.742 17.329 203.235 17.329C202.798 17.5488 202.143 17.6025 201.487 17.6025ZM202.414 36.3895L201.54 33.8766C201.758 34.0402 202.468 36.0061 202.414 36.3895ZM201.65 37.6472V37.1001C201.704 37.1001 201.704 37.6472 201.65 37.6472ZM201.706 40.8683C201.98 40.3774 202.143 39.6668 202.471 39.1759C202.58 39.613 202.087 40.7046 201.706 40.8683ZM202.688 37.1563V37.5934C202.634 37.5934 202.471 37.1563 202.688 37.1563ZM202.578 15.307L202.961 15.3607C202.961 15.1971 202.578 15.1971 202.578 15.307ZM202.744 40.7046C202.744 40.2675 202.854 40.1039 203.018 40.2138C203.071 40.6509 202.964 40.8145 202.744 40.7046ZM203.452 15.5805C203.506 15.7441 203.726 15.6342 203.836 15.5805C203.726 15.4706 203.618 15.4706 203.452 15.5805Z" fill="white"/>
<path d="M132.425 8.52043C132.589 7.69989 133.079 6.66445 133.463 6.00753C134.718 3.87803 137.123 0 140.016 0C141.327 0 142.475 0.764371 143.293 2.1295C143.02 2.45673 142.856 3.16738 142.582 3.60451C142.309 4.04165 141.818 4.6424 141.708 4.85975C142.092 5.07709 142.145 5.29688 141.926 5.57039C141.816 5.89763 141.652 6.11742 141.379 6.33476C140.995 6.93552 140.287 7.26276 139.687 7.69989C138.432 8.62788 137.174 9.66577 135.646 10.1029C135.099 10.2665 134.334 10.5938 133.734 10.4301C133.133 10.2665 133.079 9.66577 132.532 9.44598C132.86 9.17247 132.369 8.7915 132.422 8.51799L132.425 8.52043ZM136.52 3.54835C135.973 4.03921 135.482 4.58623 134.935 5.07709C135.262 4.91347 136.52 3.71197 136.52 3.54835ZM137.394 2.73025C137.174 2.5129 136.957 2.67652 136.793 3.27728C137.01 3.49462 137.23 3.331 137.394 2.73025ZM138.378 2.29312C138.488 2.40301 139.689 0.871824 139.743 0.871824C139.525 0.708204 138.541 2.07333 138.378 2.29312ZM138.705 2.40301C138.869 2.45674 139.906 1.09161 139.906 1.09161C139.579 1.03788 138.869 2.18322 138.705 2.40301ZM139.96 1.58247C140.287 1.47258 140.397 1.19906 140.561 0.927991C140.287 1.09161 140.124 1.36512 139.96 1.58247Z" fill="white"/>
<path d="M27.4603 18.6404C27.0232 19.732 26.0954 20.7162 24.9478 21.0972C23.4192 21.588 22.4352 20.7699 21.2901 22.2987C20.035 23.9373 19.5418 26.5601 18.9411 28.526C17.6299 32.7313 16.7558 36.9365 15.7742 41.198C15.2273 43.601 15.2273 46.932 14.0259 49.0639C13.479 50.0481 11.2399 51.4132 10.0948 51.4132C9.60398 51.4132 9.16691 51.2496 8.67368 50.8124C7.19888 49.4473 8.34649 46.551 8.61997 44.8586C9.22063 41.1442 9.6577 37.3224 10.3682 33.6617C10.859 31.205 11.4597 28.692 12.0066 26.289C12.2239 25.361 13.6987 21.5367 12.9345 20.9922C12.3338 20.555 10.2046 21.3194 9.4941 21.4293C8.07302 21.6466 6.7081 21.9763 5.28946 22.2474C3.0504 22.6845 1.7392 22.411 0.0470824 21.0459C-0.553581 16.7307 4.74251 15.9126 8.23906 15.2557C10.041 14.9285 12.4974 14.9285 14.192 14.1641C15.0661 13.7807 15.5032 12.9626 16.5946 12.7428C17.9058 12.4693 18.78 13.0163 19.9813 13.1262C21.4024 13.2361 22.6037 12.9064 23.805 12.9064C24.623 12.9064 25.4434 13.07 26.3713 13.6708C28.1195 14.8186 28.1733 16.8382 27.4627 18.6404H27.4603ZM13.5889 18.6404C12.4974 18.8578 11.1325 18.9677 9.71141 19.1875L13.6987 18.1496C13.1518 18.2033 12.3338 18.2595 11.5134 18.3669L13.8062 17.8199C13.5327 17.1654 6.32475 18.9115 4.63263 19.8419C4.95982 19.732 5.56049 19.5684 6.32475 19.4048C5.67037 19.6783 5.12342 20.0056 4.79623 20.389C5.01598 20.389 5.50677 20.2791 6.16115 20.1155C5.67037 20.2791 5.2333 20.5526 4.79623 20.8261C5.56049 20.936 13.6987 18.9139 13.5889 18.6404ZM9.71141 19.185L6.16115 20.113C7.2526 19.6759 8.51009 19.4024 9.71141 19.185ZM11.5134 18.3669C9.87501 18.6404 7.85326 19.0776 6.32475 19.4048C7.79955 18.8041 9.81885 18.5305 11.5134 18.3669ZM8.78356 20.1155C8.29277 20.2253 7.79955 20.389 7.30876 20.4989C7.30876 20.6625 8.78356 20.2253 8.78356 20.1155ZM9.16447 47.1518C9.11075 45.8965 9.60154 44.4752 9.76513 43.22C9.38178 43.9307 8.34405 47.9723 9.16447 48.4094C9.27435 48.2458 9.00087 47.2617 9.16447 47.1542V47.1518ZM10.1485 45.1297C10.2584 44.5827 10.3658 44.0918 10.422 43.5448C9.93117 44.0357 9.4941 46.932 9.6577 47.6402C9.82129 47.2568 10.041 45.1273 10.1485 45.1273V45.1297ZM9.82129 43.0002C9.87501 42.8366 9.87501 42.6168 9.87501 42.4532C10.0386 42.3433 10.1485 41.7425 10.0386 41.7425C10.0386 41.7425 9.71141 42.9978 9.82129 42.9978V43.0002ZM10.0948 41.469C10.3121 41.5228 10.3682 41.3054 10.2046 40.8683C9.98733 40.8146 9.93117 41.0319 10.0948 41.469ZM10.5294 46.3312C10.3658 46.3312 9.76513 47.9699 10.3658 48.0236L10.5294 46.3312ZM11.1301 19.6221C11.0202 19.6759 10.5831 19.732 10.3121 19.7858H10.3658C10.4195 19.8395 11.1301 19.8395 11.1301 19.6221ZM10.3658 43.4911C10.4757 43.4911 10.693 42.0698 10.693 42.0698C10.5294 42.0161 10.3658 43.4911 10.3658 43.4911ZM10.8029 44.7463C10.4195 44.6926 10.3658 45.0198 10.5856 45.7842C10.9689 45.8379 11.0226 45.457 10.8029 44.7463ZM10.7491 41.3054C10.9127 41.3054 10.859 40.7584 10.859 40.7047L10.7491 41.3054ZM11.2399 48.0798C11.5134 46.3874 12.661 43.601 12.2777 41.9086C12.1141 41.9086 12.1141 42.0185 12.2239 42.2358C11.9505 42.673 10.6954 47.8624 11.2399 48.0798ZM11.5671 48.0798C11.6208 48.026 11.8943 47.4253 11.7307 47.3154C11.6208 47.2617 11.677 47.479 11.5671 47.4253C11.5671 47.3154 11.6208 47.2617 11.6208 47.1518C11.4035 47.3691 11.4035 47.8062 11.5671 48.0798ZM12.2239 48.2434C12.7147 45.3495 13.8623 42.0161 13.7525 39.0685C13.6426 39.6155 13.5889 40.2162 13.479 40.7608C12.9882 41.3616 12.8783 43.8183 12.7147 44.6389L12.0603 47.8624C12.0603 47.4253 12.1141 46.9881 12.1141 46.551C11.9505 47.1518 11.7869 47.6988 11.677 48.2434C11.8406 48.3533 11.9505 48.2434 12.0042 47.9699C12.2777 48.1335 11.6208 48.1872 12.2215 48.2434H12.2239ZM12.5511 19.5123C12.4974 19.2387 11.8406 19.566 11.8406 19.6221C12.0579 19.5684 12.3314 19.5123 12.5511 19.5123ZM12.2777 31.6396C12.3314 31.3661 12.3314 31.1488 12.3875 30.929C12.2239 30.8753 12.1702 31.5297 12.2777 31.6396ZM12.3875 30.4381C12.7147 30.548 12.7709 30.2745 12.6049 29.6738C12.3314 29.62 12.2215 29.8911 12.3875 30.4381ZM12.6049 42.8903C12.3875 42.8366 12.3314 43.0002 12.4413 43.4373C12.6586 43.4911 12.7147 43.2737 12.6049 42.8903ZM12.6049 29.5077C12.8246 29.5614 12.8783 29.3978 12.7684 28.907C12.495 28.8532 12.4413 29.0706 12.6049 29.5077ZM12.7147 43.4911C12.9345 43.4911 14.5167 33.1684 14.7365 32.0768C14.5192 32.0768 14.3531 33.6055 14.3531 33.6055C13.6987 34.9169 13.7525 37.2638 13.479 38.7388C13.2055 40.2675 12.8246 41.9062 12.7147 43.4911ZM13.2055 27.7054C13.3691 27.2146 13.5327 26.7775 13.5327 26.2842C13.3691 26.7213 13.2592 27.2121 13.2055 27.7054ZM16.9755 30.5456C17.1391 29.8911 19.1609 21.3145 18.9973 21.3145C18.8874 21.6979 18.0694 24.6455 18.3429 23.1168C18.0694 23.063 17.5786 26.2304 17.5786 26.6676C17.4688 26.6676 17.5786 26.5039 17.415 26.5039C17.8521 24.4282 18.233 22.6259 18.3429 22.2425C17.9058 22.1888 15.7205 33.2758 15.6131 34.4236C15.7229 34.4236 16.6508 30.0547 17.415 26.5039C17.3613 27.5955 17.1977 28.6896 17.0317 29.6176C16.8681 29.6176 17.0854 29.4003 16.9218 29.4003C16.8119 29.9473 16.5385 30.2183 16.9755 30.001C16.8657 30.4381 16.7582 30.7654 16.7021 30.929C16.7558 30.7654 16.7021 30.6018 16.6483 30.6018C16.5946 30.6555 16.265 31.857 16.5385 31.6934C16.0477 34.0964 15.5007 37.3199 15.0637 40.0502C14.6266 42.8366 13.4253 45.9503 13.4253 48.7342C13.5889 48.788 16.7021 31.9669 16.9755 30.5456ZM15.4446 41.0343C15.3909 40.9806 13.7525 48.954 13.8599 48.954C14.7878 46.551 15.0612 43.5472 15.4446 41.0343ZM14.0259 25.9594C14.2432 26.0692 14.2994 25.9056 14.2432 25.5222C14.0259 25.4685 13.9698 25.6321 14.0259 25.9594ZM15.1174 37.3199C14.734 39.3395 14.4068 41.3616 14.0797 43.3836C14.1334 43.3836 15.3347 38.0306 15.1174 37.3199ZM15.718 38.8487L15.3909 40.8683C15.5545 40.8683 15.8816 38.9024 15.718 38.8487ZM19.4319 21.5343C19.1047 21.4244 15.6082 37.1001 15.8279 38.4653C16.2113 38.4115 17.1391 31.6934 17.3027 30.9827C18.0133 27.8153 18.8874 24.7017 19.4319 21.5343ZM16.9194 26.3965C17.1391 26.4502 17.1928 26.2866 17.0293 25.8495L16.9194 26.3965ZM17.0293 25.8495C17.3027 25.5222 17.3564 24.8116 17.4126 24.3744C17.3589 24.3744 17.1391 25.2487 17.0293 25.8495ZM18.3942 22.6259C18.6115 22.6796 18.6115 22.5722 18.5578 22.1888C18.3405 22.1351 18.2843 22.2987 18.3942 22.6259ZM19.7054 18.1471C19.5418 18.0934 19.5418 18.2009 19.5955 18.4206C19.7591 18.4744 19.8153 18.3669 19.7054 18.1471ZM20.0863 17.8761C20.0863 18.0934 20.0326 18.2595 20.0326 18.4768C19.9227 18.6404 19.7054 19.461 19.8153 19.6246C19.9251 19.1875 20.2523 18.3132 20.0887 17.8761H20.0863ZM20.5795 15.7441L20.4159 16.5647C20.5795 16.401 20.6894 15.9102 20.5795 15.7441ZM25.5484 16.4548C24.2372 16.6721 22.926 16.8382 21.6172 17.0555C21.5635 17.329 25.6046 16.6184 25.5484 16.4548ZM26.8035 16.8382C26.6399 16.5647 25.4923 16.7283 24.4008 16.9481V16.8943C24.1835 16.9481 23.9637 17.0042 23.7464 17.0042H23.9637L22.7087 17.3315C21.9982 17.4951 20.9604 17.7149 22.2179 17.7686C23.6927 17.7686 25.441 17.2216 26.8059 16.8406L26.8035 16.8382ZM21.8907 16.782C21.8907 16.9456 22.0543 16.9456 22.2741 16.782C22.2741 16.6184 22.1642 16.6184 21.8907 16.782ZM22.1617 17.9835C22.1617 18.1471 22.2716 18.1471 22.4889 17.9835C22.5427 17.8199 22.3791 17.8199 22.1617 17.9835ZM23.473 17.8199C23.473 17.6563 23.3094 17.6563 23.0359 17.8736C23.0359 18.091 23.1995 18.0372 23.473 17.8199ZM23.2556 16.3449C23.4192 16.5085 24.2397 16.2911 24.4032 16.235C24.4032 16.0714 23.3118 16.3449 23.2556 16.3449ZM24.8379 16.2911C24.3471 16.401 23.8001 16.4548 23.3094 16.5647C23.3094 16.5647 24.894 16.6184 24.8379 16.2911ZM25.3848 17.3828L23.6365 17.71C23.6903 17.9273 25.2212 17.6001 25.3848 17.3828ZM23.9637 17.0018C24.1273 17.0018 24.2372 16.9481 24.4008 16.9481C24.4008 17.0018 24.1273 17.0018 23.9637 17.0018Z" fill="white"/>
<path d="M45.5899 47.6427C45.2627 49.1177 45.4263 49.7722 45.7535 51.0836C46.5178 53.6502 44.6059 55.3425 42.1495 55.3425C42.423 55.2327 42.5866 55.1252 42.7502 54.9054C42.5329 55.1228 42.3131 55.1228 42.2594 54.9591C42.7502 54.7418 42.3693 54.7418 41.9322 54.7418C42.3693 54.6881 42.4792 54.5244 42.3693 54.3584C42.0421 54.522 41.6587 54.7418 41.2217 54.6856C41.4951 54.6856 41.605 54.5757 41.5489 54.4121H40.8383C41.2754 53.975 40.2914 54.0849 39.9105 53.6477C40.1278 53.6477 40.4013 53.594 40.5649 53.3742C40.2914 53.4841 40.0179 53.4841 39.8006 53.3205C40.0741 53.2668 40.0179 53.1569 39.8543 52.9933C39.908 52.8834 39.8543 52.8296 39.7444 52.8296C39.5808 52.666 39.3611 52.4462 39.3074 52.2289C38.924 51.2447 39.2537 49.6061 39.3074 48.5682C37.3955 49.8796 35.2663 51.2985 32.9735 51.2985C28.5491 51.2985 26.6934 47.1469 26.3101 43.2689C25.7631 37.6985 26.3101 31.9083 27.6213 26.4454C28.1682 24.206 28.8763 22.0765 29.4233 19.8908C30.0777 17.3242 30.1338 12.7917 34.1187 13.1189C40.3988 13.6098 34.8293 27.156 34.2286 30.2135C33.5742 33.5445 33.0273 36.9317 32.9174 40.2627C32.8637 42.0112 32.534 44.5778 34.7731 44.6316C36.685 44.7415 37.7764 43.3763 39.1413 42.2823C39.0876 42.4996 38.9777 42.6657 38.8679 42.7731C38.9777 42.883 39.7957 41.6254 39.8519 41.5716C39.6883 41.4617 39.3049 42.1187 39.1413 42.2823C41.6539 38.1307 42.0348 32.8876 43.1824 28.1915C44.0004 24.9142 44.9844 21.8005 45.9122 18.5794C46.5666 16.2863 46.6765 12.7355 50.0631 13.2264C56.6167 14.1544 51.7553 23.8226 50.7737 27.0461C48.6982 33.818 47.1135 40.6998 45.585 47.6378L45.5899 47.6427ZM29.0424 46.385C29.3158 46.2214 28.1682 45.5644 28.2781 45.1835C28.4954 45.4008 29.206 46.2214 29.6992 46.1676C29.7529 46.3313 29.8628 46.385 30.0264 46.3313C29.643 45.6206 28.5516 45.3471 28.1707 44.4191C27.8972 43.7646 27.7873 43.1639 27.6799 42.3995C27.2428 39.723 27.4626 36.2284 27.6262 34.4261C27.7898 32.4602 28.117 30.5481 28.4442 28.6359C28.7713 26.7238 29.8628 24.1034 29.7554 22.1913C28.7713 23.6126 28.7176 26.2329 28.3343 27.9253C27.9509 29.6176 27.8435 31.3124 27.6237 33.0048C27.1329 36.9366 25.9316 43.3837 29.0424 46.3874V46.385ZM27.841 38.1381V39.3933C28.0584 39.176 28.0046 38.1381 27.841 38.1381ZM28.0046 35.8987C27.841 35.8987 27.7873 36.4457 27.9509 36.4457C28.0046 36.2821 28.0046 36.1185 28.0046 35.8987ZM28.0608 35.0244C28.0608 34.8046 28.1145 34.5873 28.1145 34.3699C27.9509 34.4798 27.8972 34.917 28.0608 35.0244ZM28.3343 33.0585C28.388 33.713 28.1707 34.5873 28.3343 35.188C28.7713 33.6593 28.8251 31.7471 28.8812 30.1085C28.7713 30.1085 28.7176 30.1622 28.6639 30.2721C28.8275 29.4516 28.9911 28.0327 29.0473 27.432C28.9935 27.5419 28.9935 27.6493 28.9935 27.7055C28.8837 27.979 28.1194 30.6555 28.5028 30.8191C28.5565 30.7654 28.5565 30.6555 28.6126 30.5456C28.5589 30.929 28.6663 31.3637 28.6126 31.4199C28.5028 31.4199 28.3953 31.4199 28.3392 31.31C28.2293 32.1843 28.1218 33.1123 28.0657 33.9865C28.1756 33.713 28.283 33.3858 28.3392 33.0585H28.3343ZM28.3343 42.3995C28.2806 42.1822 28.2244 42.0723 28.2244 41.9086C28.1145 42.0723 28.1145 42.2359 28.3343 42.3995ZM28.2781 36.4457C28.1682 36.392 28.1145 36.4994 28.2244 36.7192C28.3343 36.7192 28.388 36.6655 28.2781 36.4457ZM28.3343 35.4078C28.2244 35.4078 28.1707 35.5177 28.2806 35.7351C28.4442 35.7888 28.4442 35.6813 28.3343 35.4078ZM28.2781 32.8412C28.3318 32.5139 28.3318 32.1305 28.388 31.8033C28.4979 31.9132 28.4417 32.6776 28.2781 32.8412ZM28.2781 42.8366C28.388 43.054 28.4417 43.3275 28.5516 43.601C28.7689 43.5473 28.388 42.8366 28.2781 42.8366ZM28.7152 43.982C28.9325 43.8184 28.8788 43.7085 28.6615 43.7085C28.4979 43.7622 28.5516 43.8721 28.7152 43.982ZM28.6615 30.2746C28.6077 30.3844 28.6077 30.4919 28.6077 30.5481C28.6077 30.4382 28.6077 30.3844 28.6615 30.2746ZM28.6053 34.4237V35.3517C28.7152 35.188 28.7152 34.5336 28.6053 34.4237ZM31.8821 47.8063C32.4828 47.8063 32.8661 47.6964 32.8661 47.479C32.6464 47.479 32.4828 47.5328 32.3192 47.5889C31.008 47.6988 29.8066 47.479 28.7152 46.7147C28.2781 47.2617 30.5172 47.8063 31.8821 47.8063ZM28.7713 37.7009V36.9903C28.6615 37.1539 28.6615 37.3175 28.7713 37.7009ZM28.7713 35.9548C28.7713 36.1722 28.7176 36.4457 28.7176 36.7192C28.9349 36.7192 28.8275 36.0086 28.7713 35.9548ZM28.7713 35.2979V35.8449C28.9349 35.5177 28.9349 35.4078 28.7713 35.2979ZM29.0985 32.8412C28.9349 33.0048 28.8812 33.1684 28.9887 33.332C28.8788 33.4957 28.6615 34.3162 28.8788 34.4237C29.0961 34.0403 28.9887 33.332 29.0961 32.8387L29.0985 32.8412ZM29.0985 31.9108L28.9887 32.6751C29.3158 32.7289 29.3158 32.5115 29.0985 31.9108ZM29.2621 30.9828C28.9887 30.929 28.9349 31.2001 29.0985 31.6934C29.372 31.7471 29.4257 31.4761 29.2621 30.9828ZM30.0264 35.9548C30.19 34.4798 30.3536 32.9511 30.3536 31.4761C30.19 31.4223 29.9165 35.9548 30.0264 35.9548ZM30.0264 21.1509C30.2437 21.2047 30.2999 21.041 30.2437 20.6601C30.0801 20.77 30.0264 20.9336 30.0264 21.1509ZM32.0481 48.0236H30.0825C30.4659 48.1872 31.8308 48.1335 32.0481 48.0236ZM30.8444 30.3283C30.6808 31.7496 30.2437 34.5873 30.2437 37.3737C30.19 37.2101 30.19 37.0465 30.19 36.8267C30.1363 38.9562 29.643 44.529 32.8661 44.8562C30.4635 43.4911 30.2999 41.4153 30.2999 39.2297C30.5172 42.2872 31.4475 44.91 34.1236 44.91C34.1236 44.7463 33.0321 44.5827 32.8685 44.4191C32.1043 43.982 31.5036 43.1639 31.34 42.2896C31.8308 43.4374 32.5951 44.529 33.9063 44.6926C32.0506 43.4374 31.3938 42.3433 31.1203 40.1039C30.7931 37.6448 31.0104 35.0781 31.2302 32.5677C31.7209 27.051 33.0859 21.4244 34.8341 16.1813C34.5069 16.3449 34.3971 17.0018 34.3971 17.2729L34.2335 17.4365C34.2872 17.1093 34.2872 16.8895 34.2335 16.6184C33.0321 16.6184 31.0104 28.907 30.8468 30.3283H30.8444ZM30.19 46.385C30.0801 46.5486 30.5733 46.4387 30.5733 46.4387C30.4097 46.3288 30.2999 46.2751 30.19 46.385ZM30.2437 37.3737C30.2437 38.0282 30.2437 38.6289 30.2974 39.2297C30.2437 38.6289 30.1875 38.0282 30.2437 37.3737ZM30.2999 31.2563C30.5172 31.1464 30.5733 30.4919 30.4635 30.1647L30.2999 31.2563ZM31.3376 28.4161C31.7209 25.9032 32.2654 23.2267 33.1933 20.8237L32.8661 22.626C32.3753 24.5381 31.9383 26.4503 31.6111 28.4699C31.0104 31.9645 30.5733 35.7351 30.9005 39.2834C30.7906 39.2834 30.8468 39.1735 30.7906 39.1735C30.7906 39.447 30.8444 39.8842 30.9542 40.3213C31.1178 40.5386 30.9542 40.4312 30.9005 40.5948C30.9542 40.8122 30.9542 41.0319 31.0104 41.2493C31.0641 41.2493 31.1203 41.1956 31.1203 41.0857L31.3376 42.0698C31.0104 42.1797 31.3376 41.4691 31.0641 41.4691C31.1178 41.6864 31.1178 41.7963 30.9542 41.7963C30.0264 37.4811 30.6808 32.7289 31.3376 28.4137V28.4161ZM30.6271 29.7275L31.0104 27.3782C30.8468 27.5419 30.356 29.4003 30.6271 29.7275ZM31.0641 27.2684C31.1178 26.8849 31.174 26.504 31.2814 26.1206C31.1178 26.3379 30.9542 27.0486 31.0641 27.2684ZM31.0641 40.9782C31.0641 41.0319 31.1178 41.0881 31.1178 41.0881L31.0641 40.9782ZM31.3376 25.8495V25.3586C31.6111 25.2487 31.7209 24.9752 31.5549 24.5405C31.2814 24.4868 31.2814 25.8519 31.3376 25.8519V25.8495ZM31.7185 23.7737C31.8821 23.6638 31.8821 23.3903 31.8284 23.173C31.7747 23.3903 31.7185 23.5564 31.7185 23.7737ZM31.9383 23.0631C32.0481 22.9532 32.1018 22.8457 32.0481 22.626C31.8284 22.7358 31.8284 22.8995 31.9383 23.0631ZM32.2654 21.8616C32.3192 21.698 32.3753 21.5881 32.3753 21.4244C32.158 21.5343 32.158 21.698 32.2654 21.8616ZM32.9198 47.86C32.9198 47.6964 32.8099 47.6964 32.5926 47.86C32.5926 47.9699 32.7025 47.9699 32.9198 47.86ZM36.3065 44.6389C35.1052 44.9661 33.9576 45.3495 32.7025 45.6231C32.8124 46.1139 35.9793 45.0223 36.3065 44.6389ZM33.1933 20.8237C33.4106 19.5123 33.794 17.9298 34.231 17.4365C34.0674 18.4207 33.5766 19.7296 33.1933 20.8237ZM37.6177 44.0381C37.4004 44.0919 37.2905 44.3117 37.1806 44.4215C37.3979 44.4215 37.564 44.2042 37.6177 44.0381ZM38.4918 43.2738C38.3282 43.0564 38.1085 43.22 37.9449 43.7109C38.1085 43.9844 38.3282 43.8208 38.4918 43.2738ZM39.7469 52.8296C39.8006 52.8834 39.8568 52.9395 39.8568 52.9933V53.047C39.5833 52.9933 39.4734 52.9371 39.5833 52.8296H39.7469ZM40.1302 41.8525C39.9666 41.7426 39.9129 41.8525 39.8568 42.126C40.0204 42.2359 40.0741 42.126 40.1302 41.8525ZM42.423 49.7184C42.3693 49.5548 42.3131 47.1518 42.2594 47.2055C42.2594 47.6427 41.8223 49.4986 42.423 49.7184ZM42.97 47.2055C43.0237 46.2775 43.6243 44.8025 43.3533 43.9282C42.6428 44.8025 42.0421 49.0078 43.0261 49.7722C43.0798 49.7184 42.9724 47.5328 42.9724 47.2055H42.97ZM43.9515 42.7267C43.6243 43.601 43.1335 49.882 43.4046 49.7722C43.3509 49.1714 43.4046 48.5169 43.5145 47.86C43.4607 48.6244 43.4607 49.3887 43.5145 49.4986C43.5682 49.4986 43.6243 49.0078 43.678 48.407V48.7904C43.8416 48.7904 43.7318 47.9723 43.7318 47.6988C43.7855 47.0981 43.7855 46.551 43.7855 46.2238C43.8954 45.7329 44.0028 45.1859 44.059 44.6951L43.9491 45.0223C43.9491 44.805 44.0028 44.5852 44.0028 44.3678C44.0565 44.3678 44.0565 44.4216 44.0565 44.4777C44.1102 43.8232 44.1102 43.2225 43.9466 42.7292L43.9515 42.7267ZM45.1528 26.6676C44.9893 26.6139 44.3349 29.3978 43.8978 31.3637C43.8978 31.2538 43.8978 31.0365 43.8441 30.763C43.5169 30.7092 43.4607 30.9266 43.5706 31.4736C43.7342 31.5273 43.7879 31.5273 43.8441 31.4736C43.6805 32.2917 43.5169 33.0585 43.4607 33.2222C43.5706 33.2759 44.9893 27.2684 45.1528 26.6676ZM43.7879 46.1139V46.2238C43.678 46.7708 43.5706 47.3154 43.5145 47.8624C43.5145 46.9882 43.6243 46.0602 43.7879 46.1139ZM43.7342 47.7526C43.7342 47.9699 43.6805 48.1897 43.6805 48.407C43.6805 48.1897 43.6805 47.9699 43.7342 47.7526ZM44.0614 29.8374C44.1713 29.4003 44.3349 28.9094 44.4447 28.4161C44.3349 28.3624 43.8441 29.7813 44.0614 29.8374ZM44.225 41.7426C44.0614 41.6889 43.9515 42.1797 44.0614 42.2334L44.225 41.7426ZM44.4423 28.1426C44.6059 28.1963 44.6596 28.0327 44.5522 27.6518C44.3886 27.598 44.3349 27.7617 44.4423 28.1426ZM44.6083 27.3245C44.7719 27.3782 44.8818 26.7238 44.8818 26.6139C44.5546 26.504 44.4985 26.7238 44.6083 27.3245ZM44.9355 37.6472L44.6083 38.5215C44.8257 38.4116 45.0454 37.9207 44.9355 37.6472ZM44.8257 26.3965C44.9893 26.5601 45.209 25.3049 45.2627 25.1413C44.9893 25.0876 44.8794 26.2329 44.8257 26.3965ZM45.5899 34.5873C45.4263 35.0244 45.3164 35.5153 45.2066 36.0086C45.4239 35.7912 45.7535 34.6972 45.5899 34.5873ZM45.2627 34.0427C45.3164 33.9328 45.4263 33.7692 45.48 33.6056C45.2627 33.5518 45.2627 33.989 45.2627 34.0427ZM45.6461 34.4237C45.9195 34.1501 45.9733 33.9865 45.756 33.9328C45.7022 34.0964 45.7022 34.26 45.6461 34.4237ZM46.1906 32.1305L46.5178 30.9828C46.3005 31.0927 46.0807 31.9108 46.1906 32.1305ZM46.5178 28.8533C46.7375 28.907 46.7375 27.8691 46.7375 27.8154C46.6838 28.1988 46.5739 28.526 46.5178 28.8533ZM46.5739 30.382C46.7375 30.4357 46.8474 29.1805 46.8474 29.1268C46.7375 29.1268 46.5739 30.382 46.5739 30.382ZM47.011 28.526C47.2283 28.526 47.5018 26.7775 47.5018 26.7238C47.2845 26.7238 47.0647 28.1988 47.011 28.526ZM47.2845 24.2109C47.5018 24.2646 47.5579 24.101 47.4481 23.72C47.2845 23.6663 47.2308 23.8299 47.2845 24.2109ZM47.5555 23.2829C47.7191 23.3366 47.7753 23.2291 47.7191 22.8995C47.5018 22.8457 47.5018 23.0094 47.5555 23.2829ZM48.4858 21.6442C48.1586 22.6284 47.8314 23.6101 47.6117 24.648C47.7753 24.7017 48.5957 21.8616 48.4858 21.6442ZM47.829 25.3586C47.9389 25.3586 50.1779 17.986 50.3952 17.3291C50.3415 17.3291 47.7728 24.4307 47.829 25.3586ZM47.9389 22.0252C48.0487 22.0789 48.1562 21.4782 48.0487 21.4244L47.9389 22.0252Z" fill="white"/>
</svg>
